<?xml version="1.0" encoding="utf-8"?>
<!-- Generator: Adobe Illustrator 25.2.1, SVG Export Plug-In . SVG Version: 6.00 Build 0)  -->
<svg version="1.1" id="Calque_1" xmlns="http://www.w3.org/2000/svg" xmlns:xlink="http://www.w3.org/1999/xlink" x="0px" y="0px"
	 viewBox="0 0 1135.8 305.2" style="enable-background:new 0 0 1135.8 305.2;" xml:space="preserve">
<style type="text/css">
	.st0{enable-background:new    ;}
	.st1{fill:#10255E;}
	.st2{fill:#00CFFF;}
	.st3{fill:#FF0060;}
</style>
<g class="st0">
	<path class="st1" d="M165.5,197.2h-14.4l-4.4-6.8c0,0-9.9,8.3-24.8,8.3c-18.1,0-35.3-13.3-35.3-41.8c0-26.1,17-42.9,40.2-42.9
		c7.1,0,13.8,2,13.8,2V75.4h25V197.2z M140.3,135.9c0,0-4.2-2.2-11-2.2c-9.7,0-16.6,8-16.6,22.8c0,14.4,6.4,21.5,15.7,21.5
		c7.5,0,11.9-3.1,11.9-3.1V135.9z"/>
	<path class="st1" d="M216.9,93.8c0,7.8-4.2,12.9-13.3,12.9c-9.4,0-13-5.2-13-12.9c0-8.2,3.5-12.9,13-12.9
		C212.8,80.9,216.9,85.6,216.9,93.8z M215.9,115.8h-25v57.8c0,10.5,1.1,25.3,21.2,25.3c8.8,0,15.7-4.9,15.7-4.9l-1.1-16.3
		c0,0-3.1,1.4-6.7,1.4c-2.5,0-4.1-1.7-4.1-6V115.8z"/>
	<path class="st1" d="M246.7,121.4c0,0,13.8-7.2,30.3-7.2c28.7,0,35.2,13.8,35.2,36.3v24.2c0,2.7,1.9,4.6,4.1,4.6
		c3.8,0,6.6-1.6,6.6-1.6l1.1,16.3c0,0-7.8,4.9-18.1,4.9c-9.1,0-13.7-6.7-14.8-12.4c0,0-9.1,12.4-26.1,12.4
		c-11.1,0-23.1-5.8-23.1-22.6c0-26.8,38.5-26.5,45.2-26.5c0-9.3-3.6-14.3-14-14.3c-12.7,0-25.6,6.4-25.6,6.4L246.7,121.4z
		 M286.9,163c-11,0.5-19.8,2.5-19.8,9.6c0,3.5,2.2,7.4,7.7,7.4c6.6,0,12.1-5.2,12.1-5.2V163z"/>
	<path class="st1" d="M414,115.8v20.7l-14.9-0.8c0.9,1.7,2.5,5.7,2.5,8.5c0,9.1-4.4,29-33,29c-1.9,0-4.1,0-4.7-0.2
		c-0.3,0.5-1.4,1.4-1.4,3s2.4,2.2,8,2.2c20.4,0,37.7,5.7,37.7,23.5c0,15.9-14.8,29.8-38.9,29.8c-19.3,0-34.8-8-34.8-24.2
		c0-11.5,15.9-21.3,15.9-21.3c-4.9-2-6.4-5.5-6.3-11.6l5.8-6.6c-8.5-3.8-13.2-12.7-13.2-23.9c0-14.4,9.6-29.8,32-29.8
		c8.2,0,16.8,2.4,16.8,2.4L414,115.8z M363.2,196.6c0,0-5.3,3-5.3,8c0,5.2,5.5,8.6,12.4,8.6c6.9,0,13.5-3.6,13.5-9.6
		c0-4.4-4.9-6.9-12.9-6.9C367.6,196.8,363,196.6,363.2,196.6z M359.1,143.6c0,6,3.8,11,10,11c6.4,0,10.5-4.9,10.5-11.1
		c0-7.4-4.2-11-10.5-11C363,132.4,359.1,137.1,359.1,143.6z"/>
</g>
<g class="st0">
	<path class="st1" d="M588.1,99.5h14.3l6,11.1c6.1-9.3,15.5-12.7,22.3-12.7c6.8,0,9.4,1.7,9.4,1.7l-1.3,21.5c0,0-4.1-1.9-9.7-1.9
		c-8.9,0-15.9,6.3-15.9,6.3V181h-25.1V99.5z"/>
	<path class="st1" d="M683,77.5c0,7.8-4.2,12.9-13.3,12.9c-9.4,0-13-5.2-13-12.9c0-8.2,3.5-12.9,13-12.9
		C678.9,64.7,683,69.4,683,77.5z M682.1,99.5h-25v57.8c0,10.5,1.1,25.3,21.2,25.3c8.8,0,15.7-4.9,15.7-4.9l-1.1-16.3
		c0,0-3.1,1.4-6.8,1.4c-2.5,0-4.1-1.7-4.1-6V99.5z"/>
	<path class="st1" d="M732.6,146.6c0.8,7.7,8.8,14,20.1,14c13.2,0,23.4-5.8,23.4-5.8l2.7,20.4c0,0-11.6,7.4-28.9,7.4
		c-24.6,0-42.9-13-42.9-41.1c0-26.1,15.5-43.5,39.1-43.5c25.4,0,34.7,17.4,34.7,34.7c0,6.3-1.4,14-1.4,14H732.6z M756.2,132.8
		c0.9-9.1-3-14.6-11-14.6c-7.4,0-13,6-13,15.4L756.2,132.8z"/>
	<path class="st1" d="M802.6,99.5h14.3l4.4,6.7c0,0,11.5-8.3,27.2-8.3c23.7,0,27.8,13.5,27.8,27.9V181h-25v-51
		c0-8.2-3.1-11.9-10.2-11.9c-7.4,0-13.3,4.2-13.3,4.2V181h-25.1V99.5z"/>
	<path class="st1" d="M906.1,99.5V84.7l24.6-6.1v20.9H951v19.1h-20.2v34.1c0,4.9,2.4,7.2,6.6,7.2c5.5,0,13-2.5,13-2.5l1.6,19.6
		c0,0-9.6,5.5-23.5,5.5c-14.6,0-22.6-9.1-22.6-25.4v-38.5h-12.9V99.5H906.1z"/>
	<path class="st1" d="M992.7,146.6c0.8,7.7,8.8,14,20.1,14c13.2,0,23.4-5.8,23.4-5.8l2.7,20.4c0,0-11.6,7.4-28.9,7.4
		c-24.6,0-42.9-13-42.9-41.1c0-26.1,15.5-43.5,39.1-43.5c25.4,0,34.7,17.4,34.7,34.7c0,6.3-1.4,14-1.4,14H992.7z M1016.3,132.8
		c0.9-9.1-3-14.6-11-14.6c-7.4,0-13,6-13,15.4L1016.3,132.8z"/>
</g>
<path class="st2" d="M529.4,139.1c-9.3,10-25,10.5-34.9,1.2l-18.9,20.3c21.2,19.8,54.3,18.7,74.1-2.5s18.7-54.3-2.5-74.1l-18.9,20.2
	C538.2,113.5,538.7,129.1,529.4,139.1z"/>
<path class="st3" d="M449.1,103.8c-19.8,21.2-18.7,54.3,2.5,74.1l18.9-20.2c-10-9.3-10.6-24.9-1.4-34.9s24.9-10.6,34.9-1.4
	c0.1,0.1,0.1,0.1,0.2,0.2l18.9-20.3C502,81.5,468.9,82.7,449.1,103.8z"/>
</svg>
