<svg id="Layer_1" data-name="Layer 1" xmlns="http://www.w3.org/2000/svg" viewBox="0 0 862.53 71.05"><defs><style>.cls-1{font-size:61.32px;font-family:ObliquaITCW01-Bold;font-weight:700;letter-spacing:0.05em;}.cls-1,.cls-5{fill:#fff;}.cls-2{fill:#00cfff;}.cls-3{fill:#ff0060;}.cls-4{fill:none;stroke:#fff;stroke-linecap:round;stroke-miterlimit:10;}.cls-6{fill:#fe3608;}.cls-7{fill:#fe3607;}.cls-8{fill:#fe3708;}.cls-9{fill:#fe3709;}</style></defs><title>diagorient-campus</title><text class="cls-1" transform="translate(0 57.62)">diag</text><text class="cls-1" transform="translate(194.31 51.26)">riente</text><path class="cls-2" d="M174.83,35.53a9.67,9.67,0,0,1-13.64.46l-7.4,7.91a20.49,20.49,0,1,0,28-29.93l-7.4,7.91A9.67,9.67,0,0,1,174.83,35.53Z" transform="translate(0 -0.61)"/><path class="cls-3" d="M143.45,21.74a20.48,20.48,0,0,0,1,29l7.4-7.91A9.65,9.65,0,0,1,165,28.67l7.4-7.91A20.49,20.49,0,0,0,143.45,21.74Z" transform="translate(0 -0.61)"/><line class="cls-4" x1="415.25" y1="17.97" x2="450.36" y2="53.08"/><line class="cls-4" x1="450.36" y1="17.97" x2="415.25" y2="53.08"/><path class="cls-5" d="M575.93,55.53H566.1V16.69h10.25c3.61,4.95,7.29,10,11.14,15.31l11.17-15.33h10.19V55.51h-9.66V32.28l-.57-.28-8.06,11.06h-6.11l-8-11.08-.49.15Z" transform="translate(0 -0.61)"/><path class="cls-5" d="M651.52,16.72h10.55v13c0,3.2-.06,6.4,0,9.6.12,5.48,3.39,8.67,8.75,8.62s8.55-3.32,8.6-8.81c.07-6.07,0-12.15,0-18.22V16.77H690c0,.72.18,1.56.18,2.4,0,6.29-.23,12.6.06,18.88.46,9.72-5.3,16.59-15.91,18.12a23.16,23.16,0,0,1-13.64-1.86c-5.62-2.71-9.08-7.05-9.23-13.43-.17-7.62-.08-15.24-.09-22.86A7.56,7.56,0,0,1,651.52,16.72Z" transform="translate(0 -0.61)"/><path class="cls-5" d="M537.67,16.66h10c5.2,12.82,10.4,25.65,15.72,38.79H552.73l-2.92-7.52H535.5l-2.93,7.66H521.84C527.16,42.49,532.41,29.58,537.67,16.66Zm5,11.59-4.34,11.58h8.59Z" transform="translate(0 -0.61)"/><path class="cls-5" d="M724.25,19c-.73,2.43-1.47,4.92-2.15,7.15-3.7-.64-7.13-1.38-10.6-1.76a8.62,8.62,0,0,0-4.46.83c-2.35,1.17-2.33,3.69,0,4.88a32,32,0,0,0,5,1.67c2.32.71,4.71,1.22,7,2.11a10.07,10.07,0,0,1,6.72,9.39,10.88,10.88,0,0,1-5.2,10.4c-4.33,2.82-9.2,3.17-14.09,2.52-3.9-.51-7.71-1.65-12-2.61.91-3.1,1.67-5.67,2.36-8,3.84.82,7.37,1.69,10.93,2.27a13.31,13.31,0,0,0,4.61-.28,3.25,3.25,0,0,0,2.77-2.92c.18-1.7-.91-2.7-2.34-3.22-1.75-.64-3.59-1.07-5.38-1.63a50.72,50.72,0,0,1-6.28-2.07,10.67,10.67,0,0,1-2-18.45A17.85,17.85,0,0,1,705,16.54C710.65,15,718.85,16.14,724.25,19Z" transform="translate(0 -0.61)"/><path class="cls-5" d="M626.4,43.66V55.51h-10V16.69c6.64,0,13.17-.4,19.63.1a13,13,0,0,1,12.18,13.63c-.17,7.28-5.64,12.71-13.49,13.21C632.07,43.8,629.42,43.66,626.4,43.66Zm.23-18.91V35.43c2.07,0,3.94.16,5.77,0,3.38-.35,5.2-2.26,5.24-5.22s-1.78-5-5.09-5.39A52.44,52.44,0,0,0,626.63,24.75Z" transform="translate(0 -0.61)"/><path class="cls-5" d="M521.37,20.58l-4.11,6.8-3-1.46a13.27,13.27,0,0,0-10-1c-6.09,1.85-9.15,8.34-7.18,15,1.81,6.1,7.75,9.31,14.17,7.5a55.77,55.77,0,0,0,6-2.46l4,6.61c-3.37,2.77-7.35,4-11.47,4.59a23,23,0,0,1-10.5-.83c-9.61-3.05-14.78-11.52-13.52-22.24C487,23.65,494.31,16.71,504,16A26.45,26.45,0,0,1,521.37,20.58Z" transform="translate(0 -0.61)"/><path class="cls-6" d="M862.49,40.4l0,5.4c-2.61,14.05-16.84,14.33-24,8.05-4.07-3.59-6.18-8.27-7.28-13.45-.39-1.84.4-3.09,1.85-3.31,1.82-.27,2.47.82,3,2.36a43.88,43.88,0,0,0,3.07,7.61,11.06,11.06,0,0,0,10.17,5.8c4.68,0,8.19-3.84,8.45-8.92s-2.65-8.86-7.74-9.39a37,37,0,0,0-7.93.27c-1.43.15-2.73.3-3.53-1-.93-1.55,0-2.67,1.13-3.72,2.61-2.39,5.18-4.82,7.75-7.26.67-.64,1.27-1.37,2.18-2.36-3.41,0-6.25,0-9.1,0-2.22,0-4.43.14-6.65.1-2,0-2.9-.86-2.86-2.41s1.06-2.28,2.61-2.34c4.09-.16,8.19-.36,12.29-.5,3.21-.11,6.43-.13,9.64-.24,1.36,0,2.78-.16,3.41,1.37s-.3,2.68-1.43,3.71c-3.1,2.82-6.14,5.7-9.63,9C855.3,30.2,861,32.84,862.49,40.4Z" transform="translate(0 -0.61)"/><path class="cls-7" d="M820.3,50.33h6.21c1.58,0,2.6.78,2.6,2.36s-1,2.33-2.61,2.38q-11.28.38-22.58.78c-1.66.06-3-.48-3.06-2.25s1.21-2.24,2.79-2.64a95.69,95.69,0,0,0,10.74-3.28,23.37,23.37,0,0,0,5.92-3.59c5.72-4.53,7.08-11,5.08-17.9-1.29-4.44-5.87-6.91-10.82-6.22s-8.47,4.2-8.73,8.9c-.2,3.54,1,6.72,2.55,9.8.45.88.94,1.75,1.46,2.59.86,1.39,1,2.7-.44,3.77-1.28.94-2.6.5-3.79-1.39A28.26,28.26,0,0,1,801,31.38c-.76-7.59,3.28-13.9,10.68-15.74,10-2.49,17.61,3.2,19,11.49,1.45,8.79-1.08,15.86-8.05,21.38Z" transform="translate(0 -0.61)"/><path class="cls-8" d="M799.21,30.28c-.47,9.61-4.16,17.68-11.92,23.65a15,15,0,0,1-9.84,3.37c-5.74-.21-10.13-4.41-11.47-10.61A25.2,25.2,0,0,1,766.7,34c2-6.72,5.5-12.55,11.49-16.47a18.18,18.18,0,0,1,7-2.83c7.46-1.13,13.14,3.88,14,12A33.78,33.78,0,0,1,799.21,30.28ZM770.39,41.37c.1,1.33.09,2.67.31,4,1.11,6.33,6.14,8.76,11.85,5.77,8.15-4.28,13.73-16.73,11.42-25.54a10.53,10.53,0,0,0-.51-1.56c-1.75-4.19-5.15-5.74-9.4-4.11a16,16,0,0,0-4.54,2.66A25.86,25.86,0,0,0,770.39,41.37Z" transform="translate(0 -0.61)"/><path class="cls-9" d="M740.05,41.75l14.16,6.19c1.8-2.06,2.25-4.57,2.71-7,1-5.51,1-11-1.25-16.24-1-2.35-2.12-4.95-5.08-5.12s-4.66,2.16-6.06,4.49c-.56.94-1,2-1.53,2.92-.75,1.32-1.85,2-3.31,1.2a2.25,2.25,0,0,1-1.1-3.09c1.35-3.45,3.18-6.56,6.33-8.69,4.38-3,9-2.37,12.42,1.7,3.81,4.55,4.95,10,5.13,15.74A35,35,0,0,1,759.08,50c2.16,1,4.14,1.94,6.16,2.81,1.5.64,2.44,1.58,1.92,3.31-.46,1.5-1.87,1.92-3.89,1.11-2.34-.94-4.64-2-6.9-3-7.22,4.64-13.74,4-17.1-1.65C736.63,48.21,736.85,43.61,740.05,41.75Zm11.07,10.14-8.25-3.62C744.41,52.38,746.74,53.44,751.12,51.89Z" transform="translate(0 -0.61)"/></svg>