<svg width="76" height="91" viewBox="0 0 76 91" fill="none" xmlns="http://www.w3.org/2000/svg">
<path d="M75.1956 45.3096C72.8051 40.8626 67.1835 37.7929 67.1835 32.3621C67.1835 29.5286 69.1012 28.6234 69.1012 25.4095C69.1012 22.1956 68.8122 18.7717 66.251 15.1118C62.2449 9.3792 53.7599 0.983643 34.938 0.983643C12.307 0.983643 -6.60682 17.8928 3.17848 44.1945C6.51467 53.7576 15.1835 57.7062 15.1835 63.3469C15.1835 65.8 14.5268 70.1683 12.7799 74.3136C10.4945 79.7051 8.32725 84.3489 8.32725 84.3489C12.1626 87.3792 20.8577 91.0129 29.1456 91.0129C40.4677 91.0129 50.5682 87.3792 50.5682 87.3792L49.964 83.5487C49.767 79.3116 48.8344 77.1471 48.8344 77.1471C48.3091 74.6416 49.9772 72.805 52.5253 73.0543C52.5253 73.0543 54.1802 73.2248 58.9481 73.7889C61.9953 74.1431 64.99 74.1693 66.9208 73.1068C71.8857 70.3782 67.0128 65.4852 67.0128 63.7929C67.0128 62.0876 70.5329 62.1663 70.5329 60.2904C70.5329 58.4145 67.2361 59.2672 67.1835 58.0735C67.1441 56.8797 71.7281 57.8111 71.7281 55.9352C71.7281 54.0593 69.8367 53.6527 69.8367 51.5538C69.8367 49.9271 74.3419 49.6123 75.3795 47.5528C75.6685 46.9231 75.7342 46.3197 75.1956 45.3096ZM34.5177 46.5164C19.1108 35.9695 16.4313 30.2894 16.8648 23.8222C17.3113 17.355 26.059 10.6648 34.5177 18.6799C42.9764 10.6779 51.7372 17.355 52.1706 23.8222C52.6172 30.2894 49.9246 35.9695 34.5177 46.5164Z" fill="#4E1ABA"/>
</svg>
