<?xml version="1.0" encoding="utf-8"?>
<!-- Generator: Adobe Illustrator 25.2.0, SVG Export Plug-In . SVG Version: 6.00 Build 0)  -->
<svg version="1.1" id="Calque_1" xmlns="http://www.w3.org/2000/svg" xmlns:xlink="http://www.w3.org/1999/xlink" x="0px" y="0px"
	 viewBox="0 0 170 112" style="enable-background:new 0 0 170 112;" xml:space="preserve">
<style type="text/css">
	.st0{fill:#5A5A5A;}
	.st1{fill:#A5A5A5;}
	.st2{fill:#FFFFFF;}
	.st3{fill:#363636;}
	.st4{fill:#A3A3A3;}
</style>
<path class="st0" d="M0,100.6h2.2L3,97.8H0v-2.2h3.5l1-3.8H7l-1,3.8h2.9l1-3.8h2.4l-1,3.8h1.5v2.2h-2.1l-0.8,2.9h2.9v2.2H9.3l-1,3.8
	H5.9l1-3.8H4l-1,3.8H0.5l1-3.8H0V100.6z M4.6,100.6h2.9l0.8-2.9H5.4L4.6,100.6z"/>
<path class="st0" d="M18.2,106.5V94.8l-3,1.7l-1.4-2l4.5-2.6H21v14.7H18.2z"/>
<path class="st0" d="M26.3,94.1c-0.5,0-0.9-0.2-1.2-0.5c-0.3-0.3-0.5-0.8-0.5-1.2c0-0.5,0.2-0.9,0.5-1.2c0.4-0.3,0.8-0.5,1.2-0.5
	c0.5,0,0.9,0.2,1.2,0.5c0.4,0.3,0.5,0.7,0.5,1.2c0,0.5-0.2,0.9-0.5,1.2C27.2,94,26.8,94.1,26.3,94.1z M27.7,107.7c0,1.3-0.3,2.3-1,3
	c-0.6,0.7-1.6,1.1-2.9,1.1c-0.4,0-0.8,0-1.1-0.1c-0.3-0.1-0.6-0.1-0.9-0.3v-2.3c0.2,0.1,0.4,0.1,0.7,0.2c0.3,0,0.6,0.1,0.9,0.1
	c0.5,0,0.9-0.1,1.2-0.4c0.3-0.3,0.5-0.7,0.5-1.3V96h2.7V107.7z"/>
<path class="st0" d="M40.6,104.8c-0.5,0.7-1.1,1.2-1.9,1.6c-0.8,0.4-1.7,0.6-2.7,0.6c-0.9,0-1.8-0.2-2.5-0.5
	c-0.7-0.3-1.3-0.7-1.8-1.2c-0.5-0.5-0.9-1.1-1.1-1.8c-0.3-0.7-0.4-1.4-0.4-2.2c0-0.8,0.1-1.5,0.4-2.2c0.3-0.7,0.6-1.3,1.1-1.8
	s1-0.9,1.7-1.2c0.7-0.3,1.4-0.5,2.3-0.5c1.5,0,2.6,0.4,3.5,1.3c0.9,0.9,1.3,2,1.3,3.4c0,0.3,0,0.6-0.1,0.8c0,0.3-0.1,0.5-0.1,0.7
	h-7.4c0.1,0.9,0.4,1.5,1,2c0.6,0.5,1.3,0.7,2.2,0.7c0.6,0,1.1-0.1,1.6-0.3c0.5-0.2,0.8-0.5,1.1-0.9L40.6,104.8z M35.6,97.8
	c-0.6,0-1.2,0.2-1.6,0.5c-0.4,0.3-0.7,0.8-0.9,1.5h4.8c0-0.5-0.2-1-0.6-1.4C36.8,98,36.3,97.8,35.6,97.8z"/>
<path class="st0" d="M49.9,102v-6h2.7v5.9c0,1.6-0.4,2.8-1.3,3.8c-0.9,0.9-2.1,1.4-3.6,1.4s-2.8-0.5-3.6-1.4
	c-0.9-0.9-1.3-2.2-1.3-3.8V96h2.7v6c0,0.8,0.2,1.4,0.6,1.8c0.4,0.4,1,0.7,1.7,0.7c0.7,0,1.3-0.2,1.7-0.7
	C49.7,103.3,49.9,102.7,49.9,102z"/>
<path class="st0" d="M55.5,106.6V96h2.7v0.8c0.4-0.4,0.8-0.6,1.3-0.9c0.5-0.3,1.1-0.4,1.8-0.4c0.6,0,1.1,0.1,1.6,0.3
	c0.5,0.2,0.9,0.5,1.3,0.9c0.4,0.4,0.7,0.9,0.9,1.5c0.2,0.6,0.3,1.3,0.3,2.1v6.3h-2.7v-6.2c0-0.7-0.2-1.3-0.6-1.7
	c-0.4-0.4-0.9-0.6-1.5-0.6c-0.7,0-1.2,0.2-1.6,0.5c-0.4,0.3-0.7,0.7-0.9,1v6.9H55.5z"/>
<path class="st0" d="M78.2,104.8c-0.5,0.7-1.1,1.2-1.9,1.6c-0.8,0.4-1.7,0.6-2.7,0.6c-0.9,0-1.8-0.2-2.5-0.5
	c-0.7-0.3-1.3-0.7-1.8-1.2c-0.5-0.5-0.9-1.1-1.1-1.8c-0.3-0.7-0.4-1.4-0.4-2.2c0-0.8,0.1-1.5,0.4-2.2c0.3-0.7,0.6-1.3,1.1-1.8
	s1-0.9,1.7-1.2c0.7-0.3,1.4-0.5,2.3-0.5c1.5,0,2.6,0.4,3.5,1.3c0.9,0.9,1.3,2,1.3,3.4c0,0.3,0,0.6-0.1,0.8c0,0.3-0.1,0.5-0.1,0.7
	h-7.4c0.1,0.9,0.4,1.5,1,2s1.3,0.7,2.2,0.7c0.6,0,1.1-0.1,1.6-0.3c0.5-0.2,0.8-0.5,1.1-0.9L78.2,104.8z M73.2,97.8
	c-0.6,0-1.2,0.2-1.6,0.5c-0.4,0.3-0.7,0.8-0.9,1.5h4.8c0-0.5-0.2-1-0.6-1.4C74.4,98,73.9,97.8,73.2,97.8z"/>
<path class="st0" d="M83.5,106.5V94.8l-3,1.7l-1.4-2l4.5-2.6h2.8v14.7H83.5z"/>
<path class="st0" d="M89.4,105l1.8-1.6c0.3,0.4,0.7,0.7,1.1,1c0.4,0.3,0.9,0.4,1.4,0.4c0.4,0,0.7-0.1,1-0.3c0.2-0.2,0.3-0.5,0.3-0.8
	c0-0.5-0.3-0.8-0.8-1c-0.5-0.2-1.1-0.4-1.7-0.7c-0.6-0.3-1.2-0.6-1.7-1.1c-0.5-0.5-0.8-1.2-0.8-2.1c0-0.9,0.4-1.7,1.1-2.3
	c0.7-0.6,1.6-0.9,2.7-0.9c0.8,0,1.6,0.2,2.2,0.5c0.7,0.3,1.2,0.8,1.6,1.3L95.8,99c-0.3-0.3-0.6-0.6-0.9-0.9
	c-0.4-0.2-0.7-0.4-1.2-0.4c-0.4,0-0.7,0.1-0.9,0.3c-0.2,0.2-0.3,0.4-0.3,0.7c0,0.4,0.3,0.8,0.8,1c0.5,0.2,1.1,0.4,1.7,0.7
	c0.6,0.3,1.2,0.6,1.7,1.1c0.5,0.4,0.8,1.1,0.8,2.1c0,0.6-0.1,1.1-0.3,1.5c-0.2,0.4-0.5,0.8-0.8,1.1c-0.3,0.3-0.8,0.5-1.2,0.7
	s-0.9,0.2-1.4,0.2c-0.9,0-1.8-0.2-2.5-0.5C90.5,106.1,89.9,105.6,89.4,105z"/>
<path class="st0" d="M104.9,95.6c0.9,0,1.6,0.2,2.4,0.5c0.7,0.3,1.3,0.7,1.8,1.2c0.5,0.5,0.9,1.1,1.2,1.8c0.3,0.7,0.4,1.4,0.4,2.2
	s-0.1,1.5-0.4,2.2c-0.3,0.7-0.7,1.3-1.2,1.8c-0.5,0.5-1.1,0.9-1.8,1.2c-0.7,0.3-1.5,0.4-2.4,0.4c-0.9,0-1.6-0.1-2.4-0.4
	c-0.7-0.3-1.3-0.7-1.8-1.2c-0.5-0.5-0.9-1.1-1.2-1.8c-0.3-0.7-0.4-1.4-0.4-2.2s0.1-1.5,0.4-2.2c0.3-0.7,0.7-1.3,1.2-1.8
	c0.5-0.5,1.1-0.9,1.8-1.2C103.3,95.7,104.1,95.6,104.9,95.6z M105,104.5c0.8,0,1.5-0.3,2.1-0.9c0.6-0.6,0.9-1.4,0.9-2.3
	c0-0.9-0.3-1.7-0.9-2.3c-0.6-0.6-1.3-0.9-2.1-0.9c-0.9,0-1.6,0.3-2.2,0.9c-0.6,0.6-0.9,1.4-0.9,2.3s0.3,1.7,0.9,2.3
	C103.4,104.2,104.1,104.5,105,104.5z"/>
<path class="st0" d="M113.2,106.6V90.8h2.7v15.7H113.2z"/>
<path class="st0" d="M126,102v-6h2.7v5.9c0,1.6-0.4,2.8-1.3,3.8c-0.9,0.9-2.1,1.4-3.6,1.4c-1.5,0-2.8-0.5-3.6-1.4
	c-0.9-0.9-1.3-2.2-1.3-3.8V96h2.7v6c0,0.8,0.2,1.4,0.6,1.8c0.4,0.4,1,0.7,1.7,0.7c0.7,0,1.3-0.2,1.7-0.7
	C125.8,103.3,126,102.7,126,102z"/>
<path class="st0" d="M132.5,102.7v-4.3h-2V96h2v-2.6h2.7V96h3.2v2.4h-3.2v4.3c0,0.6,0.1,1,0.4,1.3c0.3,0.3,0.7,0.4,1.2,0.4
	c0.4,0,0.7,0,0.9-0.1c0.3,0,0.5-0.1,0.7-0.2v2.3c-0.3,0.1-0.6,0.2-0.9,0.3c-0.3,0.1-0.7,0.1-1.1,0.1c-1.3,0-2.3-0.4-2.9-1.1
	S132.5,104,132.5,102.7z"/>
<path class="st0" d="M142.1,94.1c-0.5,0-0.9-0.2-1.2-0.5c-0.3-0.3-0.5-0.8-0.5-1.2c0-0.5,0.2-0.9,0.5-1.2c0.4-0.3,0.8-0.5,1.2-0.5
	c0.5,0,0.9,0.2,1.2,0.5c0.3,0.3,0.5,0.7,0.5,1.2c0,0.5-0.2,0.9-0.5,1.2C143,94,142.6,94.1,142.1,94.1z M140.8,106.6V96h2.7v10.6
	H140.8z"/>
<path class="st0" d="M151.7,95.6c0.9,0,1.6,0.2,2.4,0.5c0.7,0.3,1.3,0.7,1.8,1.2c0.5,0.5,0.9,1.1,1.2,1.8c0.3,0.7,0.4,1.4,0.4,2.2
	s-0.1,1.5-0.4,2.2c-0.3,0.7-0.7,1.3-1.2,1.8c-0.5,0.5-1.1,0.9-1.8,1.2c-0.7,0.3-1.5,0.4-2.4,0.4s-1.6-0.1-2.4-0.4
	c-0.7-0.3-1.3-0.7-1.8-1.2c-0.5-0.5-0.9-1.1-1.2-1.8c-0.3-0.7-0.4-1.4-0.4-2.2s0.1-1.5,0.4-2.2c0.3-0.7,0.7-1.3,1.2-1.8
	c0.5-0.5,1.1-0.9,1.8-1.2C150.1,95.7,150.8,95.6,151.7,95.6z M151.7,104.5c0.8,0,1.5-0.3,2.1-0.9c0.6-0.6,0.9-1.4,0.9-2.3
	c0-0.9-0.3-1.7-0.9-2.3c-0.6-0.6-1.3-0.9-2.1-0.9c-0.9,0-1.6,0.3-2.2,0.9c-0.6,0.6-0.9,1.4-0.9,2.3s0.3,1.7,0.9,2.3
	C150.1,104.2,150.8,104.5,151.7,104.5z"/>
<path class="st0" d="M159.9,106.6V96h2.7v0.8c0.4-0.4,0.8-0.6,1.3-0.9c0.5-0.3,1.1-0.4,1.8-0.4c0.6,0,1.1,0.1,1.6,0.3
	c0.5,0.2,0.9,0.5,1.3,0.9c0.4,0.4,0.7,0.9,0.9,1.5c0.2,0.6,0.3,1.3,0.3,2.1v6.3h-2.7v-6.2c0-0.7-0.2-1.3-0.6-1.7
	c-0.4-0.4-0.9-0.6-1.5-0.6c-0.7,0-1.2,0.2-1.6,0.5c-0.4,0.3-0.7,0.7-0.9,1v6.9H159.9z"/>
<path class="st0" d="M85,80c-22.1,0-40-17.9-40-40C45,17.9,62.9,0,85,0c22.1,0,40,17.9,40,40C125,62.1,107.1,80,85,80z M85,2.2
	c-20.8,0-37.8,17-37.8,37.8s17,37.8,37.8,37.8c20.8,0,37.8-17,37.8-37.8C122.8,19.2,105.8,2.2,85,2.2z"/>
<path class="st0" d="M85,60.4c-11.2,0-20.4-9.1-20.4-20.4S73.8,19.6,85,19.6s20.4,9.1,20.4,20.4S96.2,60.4,85,60.4z M85,20.5
	c-10.8,0-19.5,8.8-19.5,19.5c0,10.8,8.8,19.5,19.5,19.5c10.8,0,19.5-8.8,19.5-19.5C104.5,29.2,95.8,20.5,85,20.5z"/>
<path class="st1" d="M105,35.4L98.3,47l6.3,3.6l6.7-11.6L105,35.4z"/>
<path class="st2" d="M98.7,31.8L92,43.4l6.3,3.6l6.7-11.6L98.7,31.8z"/>
<path class="st3" d="M92.4,28.2l-6.7,11.6l6.3,3.6l6.7-11.6L92.4,28.2z"/>
<path class="st3" d="M92.7,29.2l17.6,10.1l-6,10.3L86.7,39.5L92.7,29.2z M92.4,28.2l-6.7,11.6l18.9,10.9l6.7-11.6L92.4,28.2z"/>
<path class="st3" d="M92.6,27.3L79.3,50.4l0.7,0.4l13.3-23.1L92.6,27.3z"/>
<path class="st3" d="M77.6,28.1L58.8,39l6.7,11.6l18.8-10.9L77.6,28.1z"/>
<path class="st4" d="M73.5,43.9l0.2-0.5l0.5,0.1l-0.4-0.4l0.2-0.5l-0.5,0.3l-0.4-0.4l0.1,0.5l-0.5,0.3l0.5,0L73.5,43.9z"/>
<path class="st4" d="M69.3,36.3l0.2-0.5l0.5,0.1l-0.4-0.4l0.2-0.5l-0.5,0.3L69,35l0.1,0.5l-0.5,0.3l0.5,0L69.3,36.3z"/>
<path class="st4" d="M67.5,42.3l0.2-0.5l0.5,0l-0.4-0.4l0.3-0.5l-0.5,0.3L67.2,41l0.1,0.5l-0.5,0.3l0.5,0L67.5,42.3z"/>
<path class="st4" d="M75.3,37.8l0.2-0.5l0.5,0.1L75.7,37l0.2-0.5l-0.5,0.3l-0.4-0.3l0.1,0.5l-0.5,0.3l0.5,0L75.3,37.8z"/>
<path class="st4" d="M71.6,35.7l0.2-0.5l0.5,0L72,34.9l0.2-0.5l-0.5,0.3l-0.4-0.4l0.1,0.5L71,35.1l0.5,0L71.6,35.7z"/>
<path class="st4" d="M73.8,36.3l0.2-0.5l0.5,0l-0.4-0.4l0.2-0.5l-0.5,0.3l-0.4-0.3l0.1,0.5l-0.5,0.3l0.5,0L73.8,36.3z"/>
<path class="st4" d="M75.8,40l0.2-0.5l0.5,0l-0.4-0.4l0.2-0.5l-0.5,0.3l-0.4-0.3l0.1,0.5l-0.5,0.3l0.5,0L75.8,40z"/>
<path class="st4" d="M75.2,42.2l0.2-0.5l0.5,0.1l-0.4-0.4l0.2-0.5l-0.5,0.3l-0.4-0.3l0.1,0.5l-0.5,0.3l0.5,0L75.2,42.2z"/>
<path class="st4" d="M71.3,44.4l0.2-0.5l0.6,0.1l-0.4-0.4l0.2-0.5l-0.5,0.3L71.1,43l0.1,0.5l-0.5,0.3l0.5,0L71.3,44.4z"/>
<path class="st4" d="M69.2,43.8l0.2-0.5l0.5,0L69.6,43l0.2-0.5l-0.5,0.3L69,42.4l0.1,0.5l-0.5,0.3l0.5,0L69.2,43.8z"/>
<path class="st4" d="M66.9,40.2l0.2-0.5l0.5,0l-0.4-0.4l0.3-0.5l-0.5,0.3l-0.4-0.3l0.1,0.5l-0.5,0.3l0.5,0L66.9,40.2z"/>
<path class="st4" d="M67.5,38.1l0.2-0.5l0.5,0.1l-0.4-0.4l0.2-0.5l-0.5,0.3l-0.4-0.4l0.1,0.5l-0.5,0.3l0.5,0L67.5,38.1z"/>
<path class="st3" d="M77.4,27.3l-0.7,0.4L90,50.8l0.7-0.4L77.4,27.3z"/>
<path class="st0" d="M54.9,25.5l2.9-5l1.4,0.8l-1.9,3.3l2,1.2l1.6-2.8l1.4,0.8l-1.6,2.8l3.6,2.1l-1,1.7L54.9,25.5z"/>
<path class="st0" d="M61.1,16.5l2.3-1.9c1.7-1.4,3.4-1.4,4.6,0c0.8,0.9,0.9,2,0.4,3l5.2,1.4l-1.8,1.5L67.2,19l-0.8,0.7l2.6,3.1
	l-1.5,1.3L61.1,16.5z M63.7,16.5l1.6,2l0.9-0.7c0.7-0.5,0.7-1.2,0.2-1.9c-0.5-0.6-1.2-0.7-1.8-0.1L63.7,16.5z"/>
<path class="st0" d="M75.3,8l2.5-0.7L84,16l-2.1,0.5l-1.6-2.2l-3.8,1L76.3,18l-2.1,0.5L75.3,8z M79.3,12.8l-2.2-3.3l-0.4,3.9
	L79.3,12.8z"/>
<path class="st0" d="M87.4,6.4l2.5,0.5l2.9,7.9l1.5-7l2,0.4l-2,9.7l-2.5-0.5l-2.9-7.9l-1.5,7l-2-0.4L87.4,6.4z"/>
<path class="st0" d="M103.9,21.2l0.5,1.9c-1.5,0.4-3.1,0.1-4.5-1c-2.5-1.9-2.6-5.1-0.9-7.3c1.7-2.2,4.9-2.8,7.4-0.9
	c1.4,1.1,2.1,2.6,2,4.1l-2,0c0.1-1-0.3-2-1.2-2.7c-1.5-1.2-3.4-0.8-4.6,0.7c-1.2,1.5-1,3.4,0.4,4.6
	C101.9,21.4,102.9,21.5,103.9,21.2z"/>
<path class="st0" d="M112.8,21.3l2.8,5l-1.5,0.8l-1.8-3.3l-2,1.1l1.5,2.8l-1.5,0.8l-1.5-2.8l-2.2,1.2l1.8,3.3l-1.5,0.8l-2.8-5
	L112.8,21.3z"/>
<path class="st0" d="M62.1,47.5l1.3,2.7c1,1.9,0.6,3.6-1.1,4.5c-1.1,0.5-2.1,0.4-3-0.3l-2.5,4.7l-1-2.1l2.4-4.1l-0.5-0.9l-3.6,1.8
	l-0.9-1.8L62.1,47.5z M61.5,50l-2.3,1.1l0.5,1c0.4,0.8,1,1,1.8,0.6c0.7-0.3,0.9-1,0.5-1.8L61.5,50z"/>
<path class="st0" d="M66.5,55.3l4.1,4l-1.2,1.2l-2.7-2.6l-1.6,1.7l2.3,2.2L66.3,63L64,60.8l-1.8,1.8l2.7,2.6l-1.2,1.2l-4.1-4
	L66.5,55.3z"/>
<path class="st0" d="M72.4,60.4l1.8,0.9l-3.5,7.2l3.4,1.6l-0.8,1.6l-5.2-2.5L72.4,60.4z"/>
<path class="st0" d="M81.8,63.6l2.6,0.2L87.3,74l-2.1-0.2l-0.7-2.6l-3.9-0.3l-1.2,2.5l-2.1-0.2L81.8,63.6z M84,69.4l-1-3.8l-1.7,3.6
	L84,69.4z"/>
<path class="st0" d="M88.9,63.9l2.4-0.9l6.6,5.2l-2.5-6.7l1.9-0.7l3.4,9.3L98.4,71l-6.6-5.2l2.5,6.7l-1.9,0.7L88.9,63.9z"/>
<path class="st0" d="M109,59.5l2-0.3c0.2,1.5-0.3,3.1-1.5,4.4c-2.2,2.2-5.4,2-7.4,0c-2-2-2.2-5.2,0-7.4c1.3-1.3,2.9-1.7,4.4-1.5
	l-0.3,2c-1-0.2-2,0.1-2.8,0.9c-1.3,1.3-1.2,3.3,0.1,4.6c1.3,1.3,3.3,1.4,4.6,0.1C108.9,61.5,109.1,60.5,109,59.5z"/>
<path class="st0" d="M105.6,52.2L108,47l1.5,0.7l-1.5,3.4l2.1,1l1.3-2.9l1.5,0.7l-1.3,2.9l2.3,1l1.5-3.4L117,51l-2.4,5.2L105.6,52.2
	z"/>
</svg>
