<svg id="Layer_1" data-name="Layer 1" xmlns="http://www.w3.org/2000/svg" viewBox="0 0 397.9 299">
  <rect width="397.9" height="228.12" fill="#fff"/>
  <path d="M64.14,19H436.5V132.26H64.14Z" transform="translate(-51.37 -1)" fill="#fff"/>
  <path d="M361.45,216.22c-.16,0-.16-.3,0-.76.15-.61.3-.61,1.21-.46s.92,0,1.22-.45c.61-.76.15-1.37-.91-1.22s-.91.16-.76-.45c.45-1.82.61-1.82-.92-2a9.48,9.48,0,0,1-5-2.59c-2-2-2.74-4.09-2.59-7.43a8,8,0,0,1,.92-3.5c1.82-3.64,5.93-5.46,11.57-5.16a15.66,15.66,0,0,1,3.35.46l1.21.3.16,3.95h-.77c-.45,0-.76-.15-.76-.31,0-.6-1.52-1.82-2.58-2.27a10.48,10.48,0,0,0-5.33.15c-3.05,1.37-4.42,4.71-3.5,8.65a7.46,7.46,0,0,0,2.43,4.25,5.74,5.74,0,0,0,4.42,1.67,4.81,4.81,0,0,0,4.41-2.27c.61-1.07.76-1.22,1.37-.76.31.15.31.45,0,2.12l-.3,2-1.07.3a14.5,14.5,0,0,1-3,.46c-2,.15-2,.15-2,.6s.15.46.61.46a1.83,1.83,0,0,1,1.67,1.21,2.68,2.68,0,0,1-1.37,2.58A7.8,7.8,0,0,1,361.45,216.22Zm-144-.91a18.45,18.45,0,0,1-6.09-2.89l-1.83-1.21-2.89-.15c-3.2-.15-4.42-.46-6.4-1.82-4.56-3-4.72-10.78-.3-14.58,3.35-2.88,9.28-3.34,13.4-1.37,5.78,2.74,6.39,11.09,1.06,15.34a9.45,9.45,0,0,1-1.67,1.21c-.46,0,5.17,2.74,6.85,3.34a8.48,8.48,0,0,0,5.48.15c1.22-.3,1.37-.3,1.52.31.15.45-.15.61-1.22,1.06C223.68,215.76,219.87,215.92,217.44,215.31Zm-7.16-6.68c4.11-2,4.87-8,1.52-11.84a6.21,6.21,0,0,0-10.5,1.06c-1.83,3.79.3,9.56,4,11.08A7.1,7.1,0,0,0,210.28,208.63ZM83.17,210.91c-1.07-.46-2.29-1.83-4.27-4.71C76,201.64,75.4,201,74.49,201h-.76v2.43c0,4.4.46,6.07,2.13,6.37.46.15.61.31.61.61v.61h-9.9v-.46c0-.3.16-.61.76-.76a2.33,2.33,0,0,0,1.22-.76c.46-.6.46-.76.46-9.11s0-8.5-.46-9.11a2.65,2.65,0,0,0-1.22-.75c-.6-.16-.76-.31-.76-.61,0-.46,0-.46,6.09-.61,6.55-.15,7.92,0,9.75.76a5.5,5.5,0,0,1,2.89,4.71,6.32,6.32,0,0,1-4.11,5.46l-1.22.61,2.74,3.64c3.2,4.25,4.11,5.32,5,5.77s.92,1.22.16,1.52A22.86,22.86,0,0,1,83.17,210.91Zm-6.09-12.15a4,4,0,0,0,1.82-7,4.77,4.77,0,0,0-4-1.22l-1.22.15v8.2H75A10.19,10.19,0,0,0,77.08,198.76Zm55.71,12.15a7.22,7.22,0,0,1-3.19-2c-1.22-1.36-1.37-2.12-1.37-7.89,0-6.08-.15-6.68-1.37-7.29-.46-.15-.76-.46-.76-.76,0-.46.15-.46,4.11-.46s4.11,0,4.11.46a.41.41,0,0,1-.46.46,2,2,0,0,0-1.07.6l-.6.61v5.92c0,5.62,0,5.92.45,6.83a4.31,4.31,0,0,0,4.11,1.83c2-.16,3.2-.76,4-2.28.61-1.22.61-1.22.61-6.53,0-4.71,0-5.47-.46-5.92a4.37,4.37,0,0,0-1.06-.76c-.46-.15-.61-.3-.61-.61s.15-.45,3.2-.45,3.19,0,3.19.45-.15.46-.61.61c-1.06.3-1.21.76-1.37,7l-.15,5.92-.76,1.22a6.49,6.49,0,0,1-4.11,3,18.73,18.73,0,0,1-5.79,0Zm94.39,0a7.26,7.26,0,0,1-3.2-2c-1.22-1.36-1.37-2.28-1.37-8,0-5.93-.15-6.53-1.37-7.14-.46-.15-.76-.46-.76-.76,0-.46.15-.46,4.11-.46s4.11,0,4.11.46c0,.3-.15.46-.46.61a1.55,1.55,0,0,0-1.06.76c-.46.6-.46.91-.61,5.77-.15,5.92.15,7.13,1.22,8,2,1.82,6.09,1.37,7.3-.91.77-1.36.92-3.19.92-7.74-.15-4.86-.31-5.47-1.52-5.77-.46-.15-.61-.3-.61-.61s.15-.45,3.19-.45,3.35,0,3.35.45-.3.46-.76.61a2.18,2.18,0,0,0-.91.61,37.29,37.29,0,0,0-.31,6.22l-.15,5.92-.76,1.22a6.44,6.44,0,0,1-4.11,3,12.55,12.55,0,0,1-6.24.16Zm76.72,0c-.91-.46-2.13-1.67-3.95-4.41-2.29-3.49-2.59-3.79-3.2-3.79s-.61,0-.61,2.73c0,3.19.3,4.25,1.37,4.4.61.15.76.31.76.61v.46h-8.22v-.46c0-.46.15-.61.76-.61,1.37-.3,1.52-.91,1.37-8.35v-6.68l-.61-.61a1.93,1.93,0,0,0-1.06-.6.4.4,0,0,1-.46-.46c0-.3.3-.45,1.83-.61.91-.15,3.65-.15,5.93-.15,3.81,0,4.27.15,5.18.61a4.21,4.21,0,0,1,2.44,4.1c0,1.82-1.07,3.34-3.2,4.4-.61.31-1.07.61-.91.76a38.91,38.91,0,0,1,2.43,3c2.28,3.19,3.5,4.55,4.11,4.55.46,0,.46,1.07,0,1.22A17.84,17.84,0,0,1,303.9,210.91Zm-4.56-10.33a4.14,4.14,0,0,0,2.13-2.43,3.63,3.63,0,0,0-1.22-3.34,3.49,3.49,0,0,0-3.05-.76l-.91.15v6.69h1.22A5.77,5.77,0,0,0,299.34,200.58Zm107.78,10.17c-.76-.15-1.37-.3-1.37-.45a17.24,17.24,0,0,1-.46-2.13l-.3-2.12h.6a1.57,1.57,0,0,1,.61.15c0,.61,1.53,2.28,2.44,2.58,2.43,1.06,5.48,0,5.48-1.82,0-1.22-.61-2-3.05-3.34-3.19-1.82-4.56-2.89-5.17-4a6.27,6.27,0,0,1-.31-4.4c.31-.91,1.83-2.13,3.2-2.74a18.28,18.28,0,0,1,7,0L417,193v3.95h-.76c-.61,0-.76-.15-.91-.61a4.37,4.37,0,0,0-2.59-2.28c-2.89-.76-5.18,2-3.35,3.95a29.37,29.37,0,0,0,3.5,2.43c3.05,1.82,4.26,2.88,4.57,4.1.91,2.73-.61,5.16-3.5,6.07C412.6,211.36,409.1,211.36,407.12,210.75ZM90,210.3c0-.46.15-.46.61-.46a1.93,1.93,0,0,0,1.06-.6c.46-.61.46-.76.46-7.44,0-4.86-.15-7-.31-7.29a1.81,1.81,0,0,0-1.52-1.06c-.3,0-.45-.16-.45-.61v-.61h14.46v4.56h-.61a1,1,0,0,1-.92-.76c-.45-1.37-1.21-1.67-4.11-1.67l-2.58-.16v6.23l2-.15c2.13-.15,3.19-.61,3.34-1.52,0-.3.31-.46.77-.46h.6v5.62h-.6c-.61,0-.61-.15-.61-.45,0-.91-.76-1.37-3.2-1.37L96.26,202v3c0,3.65,0,3.8,2.74,3.8s4.11-.61,4.87-2.13c.31-.75,1.22-.91,1.52-.3a8.35,8.35,0,0,1-1.06,3.8l-.31.6H90v-.45Zm18.57.15c0-.46.15-.61.76-.61,1.22-.3,1.37-.6,1.37-7.59.15-7.29,0-7.89-1.37-8.5-.61-.3-.76-.46-.76-.91v-.46l5.48.15c5.94.16,6.39.16,8.07,1.37A4.65,4.65,0,0,1,123.2,200c-1.06,1.83-2.89,2.74-5.78,2.89l-1.52.15-.31-.76-.45-.76.91-.15a5.79,5.79,0,0,0,3-1.52,2.86,2.86,0,0,0,.46-1.82c0-2.12-1.37-3.34-3.65-3.64l-1.37-.16v7.29c.15,7.9.15,8.2,1.52,8.35.46.15.61.31.61.61v.46h-8.22Zm40.19-.15a.4.4,0,0,1,.46-.46,1.64,1.64,0,0,0,1.06-.45l.61-.46v-6.68c.15-7.59,0-8.2-1.37-8.65-.46-.15-.76-.46-.76-.61,0-.3.3-.46,3.65-.46,7-.15,8.53,0,9.75.46a3.28,3.28,0,0,1,2.28,3.19V198a4.58,4.58,0,0,1-2.59,2.43l-1.22.46.92.3a4.79,4.79,0,0,1,3.5,5.16,4.87,4.87,0,0,1-3.35,4.1c-1.22.46-1.52.46-7,.46h-5.79Zm10.66-1.67a3.18,3.18,0,0,0,1.52-3.34c-.15-2.28-2-3.65-4.72-3.65h-1.52V205c0,3.19.15,3.34.61,3.65A4,4,0,0,0,159.44,208.63Zm-.92-9a2.61,2.61,0,0,0,2.13-2.88c-.15-1.67-1.67-2.59-4.26-2.59h-1.52v5.93h1.22C156.85,200,157.91,199.82,158.52,199.67Zm9.9,10.63c0-.31.15-.46.61-.61a1.79,1.79,0,0,0,1.21-.76c.46-.61.46-.91.46-7.29,0-5.31-.15-6.83-.3-7.28-.46-.61-.92-1.07-1.53-1.07a.4.4,0,0,1-.45-.45c0-.46,0-.46,4.41-.46s4.42,0,4.42.46a.4.4,0,0,1-.46.45,6.68,6.68,0,0,0-1.22.46l-.61.61-.15,6.83V208l.61.3c.46.31,1.07.31,2.44.31,2.28-.15,3.34-.61,3.95-2,.46-.91.92-1.06,1.53-.75.15.15.15.6-.16,1.82a8.56,8.56,0,0,1-.91,2.27l-.46.46-6.69-.15-6.7-.15Zm16.89.15c0-.46.16-.61.77-.61,1.37-.3,1.37-.76,1.37-8.2,0-6.07,0-6.52-.46-7.13a2.8,2.8,0,0,0-1.07-.91c-.45-.15-.61-.31-.61-.61,0-.46,0-.46,4.11-.46s4.12,0,4.12.46c0,.3-.16.46-.61.61a2.68,2.68,0,0,0-1.07.76c-.46.6-.46,1.21-.46,7.28,0,7.44.16,8.05,1.37,8.2.46.15.61.31.61.61v.46h-8.22Zm57.85,0c0-.3.16-.46.76-.61,1.37-.3,1.37-.76,1.37-8.2,0-6.37,0-6.52-.6-7.28a1.59,1.59,0,0,0-1.07-.76c-.46,0-.46-.15-.46-.61v-.46h14.31v2.28c0,2.28,0,2.28-.61,2.28-.45,0-.61-.15-.76-.76-.3-1.21-1.22-1.67-4.11-1.82l-2.43-.15-.16,1.06a17.71,17.71,0,0,0-.15,3v2.12l2-.15c2.28-.15,3.2-.46,3.35-1.37.15-.45.3-.6.76-.6H256v5.61h-.61c-.46,0-.61-.15-.61-.3,0-1.06-1.22-1.52-3.65-1.52h-2l.15,3c.15,3.64.15,3.64,3.05,3.64,2.58,0,3.95-.61,4.56-2,.31-.76.61-.91,1.07-.91a1.17,1.17,0,0,1,.76.3,16.3,16.3,0,0,1-1.22,4.25c-.3.31-1.52.31-7.15.31h-6.85Zm26.64,0c0-.3.16-.61.76-.76a3.62,3.62,0,0,0,1.22-.91c.46-.61.46-.91.46-8.81,0-9.26,0-9.41-1.68-9.86-.6-.16-.91-.31-.91-.76v-.61h16.9v5.46h-.76c-.61,0-.76-.15-.76-.45a3.05,3.05,0,0,0-1.83-2.28,14.36,14.36,0,0,0-3.65-.45l-2.74-.16v7.44h2c2.74,0,3.5-.3,4.11-1.36a1.13,1.13,0,0,1,1.21-.76h.76v6.53l-.76-.15c-.61,0-.76-.16-.91-.46-.46-1.21-1.83-1.82-4.87-1.82h-1.52l.15,3.79c.15,4.41.3,5,1.83,5.47.6.15.91.45.91.76v.45H269.65Zm38.67,0c0-.46.15-.61.46-.61.76,0,1.52-1.36,3.35-5.46,2.43-5.62,4.87-11.24,4.87-11.54s.3-.31,1.22-.31h1.21l3.2,7.6c3.5,8.19,4.26,9.41,5,9.71a1,1,0,0,1,.61.76c0,.46,0,.46-4.11.46h-4.11v-.46c0-.45.15-.61.76-.61,1.07-.15,1.07-.75.31-3l-.76-1.82h-5.79l-.61,1.51c-.76,2-.76,3.19.16,3.34.45,0,.6.16.6.61v.61h-6.24Zm11.27-7.74a33.68,33.68,0,0,0-2-4.71c-.16,0-.31.46-.61.91l-1.07,2.43-.61,1.52h2A7.13,7.13,0,0,0,319.74,202.71Zm10.35,7.74a.56.56,0,0,1,.61-.61c1.37-.3,1.37-.6,1.52-7.59.15-7.29,0-7.89-1.37-8.5-.46-.15-.76-.46-.76-.61s.3-.3,2.74-.3h2.74l1.52,1.82c.91,1.06,3,3.34,5,5.47,1.37,1.36,2.59,2.88,4,4.25l.61.6-.15-4.85c-.15-5.32-.15-5.93-1.52-6.23-.46-.15-.61-.3-.61-.61s.15-.45,3.19-.45,3.2,0,3.2.45-.15.46-.61.46a1.55,1.55,0,0,0-1.06.76c-.46.61-.46.91-.61,8.65l-.16,8.05h-1.06a1.86,1.86,0,0,1-1.83-.91c-.61-.76-11-12.15-11.26-12.6V203c.15,6.07.3,6.83,1.37,7,.61.16.76.31.76.61v.46h-6.55Zm42.32,0c0-.3.15-.61.3-.61.46,0,1.37-1.06,2-2.27.91-1.83,5-11.39,5.79-13.37l.6-1.82,2.14.15,3.19,7.44c1.83,4.1,3.35,7.75,3.66,8.2.61.91,1.37,1.82,1.67,1.82.15,0,.31.31.31.61v.61h-8.23v-.61c0-.3.16-.61.46-.61,1.22,0,1.22-.91.46-3.34l-.61-1.67H378.5L378,206.5c-.91,2.74-.91,3.49.15,3.49.31,0,.46.16.46.61v.61h-6.24Zm10.35-9.72c-.46-1.21-.91-2.43-.91-2.58-.16-.15-.61.61-1.22,2.13a22.62,22.62,0,0,0-1.07,2.58c0,.15.92.15,2,.15h2Zm11,9.72c0-.46.15-.61.61-.61a1.64,1.64,0,0,0,1.06-.45c.46-.46.46-.91.46-7.29v-7.29a2.17,2.17,0,0,0-1.67-1.36.41.41,0,0,1-.46-.46c0-.46,0-.46,4.11-.46s4.11,0,4.11.46c0,.3-.3.61-.76.76a1.75,1.75,0,0,0-.91.91c-.31.76-.61,7.59-.31,11.24.15,2.58.31,3.18.61,3.49a1.32,1.32,0,0,0,.91.45c.31,0,.46.15.46.61v.61h-8.22Zm27.1,0c0-.3.15-.46.61-.46a1.93,1.93,0,0,0,1.06-.6c.46-.61.46-.76.46-7.44,0-4.71-.15-7-.31-7.29a1.81,1.81,0,0,0-1.52-1.06c-.3,0-.46-.15-.46-.61v-.61h14.47v4.56h-.61a1,1,0,0,1-.92-.76c-.45-1.22-1.21-1.67-4.11-1.67l-2.58-.15v6.22h1.52c2.13,0,3-.3,3.5-1.21.3-.46.46-.76.91-.76h.61v5.62h-.61c-.61,0-.61-.16-.61-.46,0-.91-.76-1.37-3.19-1.37l-2.13-.15v3c0,3.64,0,3.79,2.74,3.79s4.11-.6,4.87-2.12c.3-.76,1.22-.91,1.52-.31a8.51,8.51,0,0,1-1.07,3.8l-.3.61h-14Zm-324.26-20L96,190l1.37-2c.77-1.06,1.53-2,1.83-2a13.42,13.42,0,0,1,3.35.6,42.55,42.55,0,0,1-5.18,4.1c0,.15-.45,0-.76-.3Zm-30.75-15H434.52v2H65.81ZM206.17,171a3.56,3.56,0,0,1-2.74-3.95,3.48,3.48,0,0,1,2.28-2.58l1.22-.46-.76-.3a1.19,1.19,0,0,1-.76-.76c0-.46,1.83-2,2.28-2,.15,0,0-.31-.3-.76-1.22-1.83-.31-4.56,2.13-5.77,1.22-.61,1.67-.61,6.09-.31,2.59.16,2.59.16,2.43.61a1.63,1.63,0,0,1-.15.61c0,.15-.45.15-.91.15h-.91l.15,1.21c.3,2.74-2,4.71-5.48,4.71-1.83,0-2.74.3-2,.76.15.15,1.37.46,2.59.91,4,1.22,4.72,1.82,4.56,3.64-.15,2-2,3.65-4.41,4.41A12.62,12.62,0,0,1,206.17,171Zm5.33-1.37c2-.91,2.74-2.58,1.67-3.49a10.54,10.54,0,0,0-4.72-1.37c-1.67.3-3.19,2.13-2.89,3.49C206,170.06,208.91,170.82,211.5,169.61Zm.61-9.87a3,3,0,0,0,1.06-4.25c-1.37-1.52-4,.15-4,2.73a1.78,1.78,0,0,0,.61,1.52,1.66,1.66,0,0,0,2.29,0Zm9.28,5a1.77,1.77,0,0,1-1.67-2c-.31-2.89,2.43-7.14,5.48-8.5,1.52-.76,4.72-.76,6.7-.16.15,0,0,.76-.46,2.28-.91,3-1.52,5.92-1.22,6.53.16.3.31.3,1.07.15s.76-.15.91,0c.31.46.15.61-1.22,1.06-1.82.61-2.74.46-3-.45l-.15-.61-.92.46A8.68,8.68,0,0,1,221.39,164.75Zm4.11-1.82a5.29,5.29,0,0,0,1.68-1.06,25.81,25.81,0,0,0,1.67-5.62c.16-.76.16-.76-.76-1.06-1.67-.46-3.2.6-4.57,3s-1.67,4.56-.76,5.16C223.37,163.69,223.68,163.69,225.5,162.93Zm114.63,1.82c-1.06-.3-1.52-.61-1.82-1.52-.46-1.52.61-4.4,2.43-6.53,2.13-2.58,4.42-3.34,7.92-2.88a5.7,5.7,0,0,1,1.83.46,8.84,8.84,0,0,1-.61,3,25.05,25.05,0,0,0-.92,4.4v1.37H350c.91,0,1.07,0,1.07.46s-.16.6-1.38.91c-2,.6-2.74.45-2.89-.31a1.55,1.55,0,0,0-.15-.6,6.18,6.18,0,0,1-1.37.45,22.1,22.1,0,0,1-4,1.06C341.05,164.9,340.59,164.9,340.13,164.75Zm4.11-1.82a6.84,6.84,0,0,0,1.53-.91c.61-.61,1.52-3.34,2-5.92.15-.61.15-.76-.77-.91a2.46,2.46,0,0,0-1.82.15c-1.52.6-3.05,2.88-3.81,5.62C340.44,163.54,341.35,164.14,344.24,162.93ZM81.64,164.3a30.88,30.88,0,0,1,.92-4.56c1.22-4.4,1.22-4.71-.15-4.4-.61.15-.77.15-.77-.31s.16-.6,1.37-.91a20.55,20.55,0,0,1,2.29-.45c.76,0,.91,0,.91.61a21.75,21.75,0,0,1-.91,4.4,23,23,0,0,0-.92,4.1c.16.3.31.3,1.22.15,1.07-.15,1.07-.15,1.07.3s-.31.61-1.37.91a14.41,14.41,0,0,1-2.44.31C82,164.75,81.8,164.6,81.64,164.3Zm9.29,0-.61-.46,1.83-7.44c1.06-4.1,1.83-7.74,1.83-8.05-.16-.6-.16-.6-1.07-.45-.46.15-.61,0-.61-.46s.91-.91,3.2-1.21c1.37-.15,1.37-.15,1.37.45a19.92,19.92,0,0,1-.92,3.95c-.45,2-.91,3.65-.91,3.8s.31.15,1.07-.15c2.74-1.07,5-1.07,5.93.15.76,1.06.46,3.94-.91,6.22a9.26,9.26,0,0,1-3.81,3.49c-1.06.76-5.48.76-6.39.16Zm6.24-1.37c1.22-.76,2.59-3.34,2.89-5.77.46-2.28-1.37-2.73-4-1.06a2.39,2.39,0,0,0-1.22,1.52,28.76,28.76,0,0,0-1.37,5.16C93.37,163.69,95.8,163.84,97.17,162.93Zm9.14,1.21c-.61-.6-.76-.76-.76-2.27,0-3.65,2.28-7,5.48-7.9a4.35,4.35,0,0,1,4,.46c.61.45.61.6.61,1.51,0,2.28-2.28,3.95-5.48,4.1-.91,0-1.82.16-1.82.31-.31.3-.16,1.67.15,2.12.61,1.07,1.52,1.07,3.5.16,1.22-.61,1.52-.61,1.83-.31.45.61.15.76-1.68,1.67a7.66,7.66,0,0,1-3.5.76C107.22,164.75,107.07,164.75,106.31,164.14Zm4.41-5.31c2.13-.46,3.35-2.43,2.44-3.49-.61-.61-1.22-.61-2.13,0a8.35,8.35,0,0,0-2.14,3.19c-.15.45,0,.45.46.45C109.5,159.13,110.26,159,110.72,158.83Zm8.07,5.77s.46-1.67.91-3.8a38.61,38.61,0,0,0,.92-4.7v-.91l-.92.15c-.76.3-.76.15-.76-.15,0-.46.76-.91,2.74-1.22,1.37-.3,1.83-.15,1.83.76v.46l.91-.46c1.52-.91,2.44-1.06,3.5-.61.61.16.92.46.92.61-.61,2.13-1.07,2.73-1.53,2.73s-.6-.15-.6-.76c0-1.51-1.53-1.51-2.59,0a22.89,22.89,0,0,0-2,6.23c-.15.91-.46,1.67-.61,1.67a16.59,16.59,0,0,1-2.74,0Zm12.18-.15c-.31-.31-.15-1.07,1.22-6.68l.6-2.28H132c-.45,0-.76,0-.76-.15a1.36,1.36,0,0,1,.92-.91c.6,0,1.67-1.07,2.28-2s.76-1.21,1.52-1.21c.46,0,.61.15.46.76-.15.45-.15,1.06-.31,1.52l-.3.6h1.06c1.22,0,1.38.16.92.91-.15.31-.46.31-1.22.31-1.37,0-1.07-.46-2.13,4.4-.76,3.49-.76,3.8.61,3.49,1.06-.3,1.22-.3,1.06.31,0,.3-.3.6-1.21.91-1.68.45-3.51.45-4,0Zm9.89-.31c-1.82-1.67-.45-6.52,2.29-8.95a7.88,7.88,0,0,1,4.11-1.67,5.12,5.12,0,0,1,2.58,1.06,3.19,3.19,0,0,1-.15,2.88,6.78,6.78,0,0,1-5.63,2.43h-1.37v1.22c0,2.27,1.07,2.58,3.81,1.36.91-.3,1.67-.6,1.67-.6a1.55,1.55,0,0,1,.15.6c0,.31-.3.61-1.67,1.22a5.89,5.89,0,0,1-3.5.76C141.62,164.75,141.32,164.75,140.86,164.14Zm4.27-5.31a4.21,4.21,0,0,0,2.58-1.82c.31-.76.31-.76-.15-1.37q-.92-1.14-2.28,0a8.94,8.94,0,0,0-2.13,3.19C143.15,159.13,144.06,159.13,145.13,158.83ZM236,164.6c-.31-.3-.15-1.52,1.06-6.07,1.53-6.08,2.44-9.57,2.44-10.18,0-.45-.15-.45-.91-.3s-.92.15-.92-.46.61-.75,3-1.21c1.22-.15,1.67,0,1.67.61,0,.3-.76,3.79-1.83,7.59s-1.82,7.44-1.82,7.74v.76l1.06-.15c1.07-.15,1.07-.15,1.07.3s-.31.61-1.37.91C238.14,164.75,236.31,164.9,236,164.6Zm9.13-.15c-.3-.46-.15-1.37.92-5a23.2,23.2,0,0,0,.91-3.8c-.15-.3-.15-.45-1.22-.15-.61.15-.61.15-.61-.3s1.07-.91,2.89-1.37c1.37-.15,2-.15,2,.46,0,.15-.45,2.12-1.06,4.4a18.89,18.89,0,0,0-.92,4.4c.16.15.61.15,1.22.15,1.07-.15,1.07-.15,1.07.31,0,.3-.31.6-1.37.91C247.12,164.9,245.45,164.9,245.14,164.45Zm8.83,0c-.15-.15,0-.91.15-1.52.61-2.13,1.68-7.29,1.68-7.29a1.9,1.9,0,0,0-.76-.15c-1.07,0-.92-.61.45-1.21a3.54,3.54,0,0,0,1.83-1.83c.76-1.21.91-1.36,1.52-1.36h.61l-.3,1.36c-.16.76-.31,1.37-.31,1.52s.61.15,1.22.15c1.22,0,1.37,0,1.07.76-.16.46-.31.46-1.37.46h-1.22l-.76,3.64a14.55,14.55,0,0,0-.61,4.1c.15.3.3.3.91.15,1.07-.3,1.22-.3,1.22.31,0,.45-.15.6-1.37.91C255.8,164.9,254.28,164.9,254,164.45Zm10-.15c-.61-.46-.76-.76-.76-2a8.81,8.81,0,0,1,3.35-7.29c2.28-1.51,4.87-1.82,6.24-.45.61.61.76.76.61,1.67-.16,2.12-2.59,3.79-5.64,3.79-2,.16-2.13.31-1.82,1.83s1.22,1.82,3.65.76c1.68-.61,2-.61,2,0s-2.89,1.82-5,2C264.93,164.9,264.63,164.75,264,164.3Zm5.17-5.77c1.53-.76,2.14-2.28,1.37-3-1.06-1.06-3,.3-4.11,2.88l-.3.91,1.07-.15C267.82,159,268.43,158.68,269.19,158.53ZM327,164.75s.46-1.67.92-3.79a22.16,22.16,0,0,0,.91-4.71v-.91l-.91.15c-.92.15-.92.15-.92-.3s.46-.76,2.44-1.22c1.67-.45,2.28-.3,2.28.61V155l.91-.45c1.53-.91,2.44-1.06,3.51-.61a2,2,0,0,1,.91.46,3.94,3.94,0,0,1-.61,1.51c-.46,1.07-.61,1.37-1.06,1.37s-.61-.15-.61-.76c0-1.52-1.37-1.67-2.44-.15-.76,1.06-1.22,2.28-1.83,5.31-.3,1.37-.6,2.59-.6,2.59A7.24,7.24,0,0,1,327,164.75Zm27.86-.3c-.15-.46,0-1.82.91-5.62l.77-3.34H356c-.76-.15-.92-.76-.16-1.06a3.94,3.94,0,0,0,2.29-2.13c.61-1.06.76-1.21,1.52-1.21s.61.15.46.76c-.16.45-.16,1.06-.31,1.51l-.15.76h1.07c1.21,0,1.37.16.91.91-.15.31-.46.31-1.22.31-1.37,0-1.06-.46-2.13,4.4-.76,3.49-.76,3.8.61,3.49,1.06-.3,1.22-.3,1.06.31,0,.3-.3.6-1.21.91C357,164.9,355.21,164.9,354.9,164.45Zm9.74-.15c-1.82-1.67-.61-6.53,2.29-9a7.91,7.91,0,0,1,4.11-1.67,5.2,5.2,0,0,1,2.59,1.06,3.59,3.59,0,0,1-.16,3,6.81,6.81,0,0,1-5.63,2.43h-1.37l.15,1.36c.16,2.13,1.07,2.43,3.66,1.22.91-.31,1.67-.61,1.67-.61a1.57,1.57,0,0,1,.15.61c.16.3-.3.6-1.67,1.21a5.66,5.66,0,0,1-3.35.76,3,3,0,0,1-2.44-.45Zm5.18-5.77c1.67-.76,2.44-2.43,1.37-3.19-.76-.46-1.22-.46-2.13.3a8.24,8.24,0,0,0-2.13,3.34C366.93,159.28,368.6,159.13,369.82,158.53Zm7.31,6.07c0-.15.45-1.82.91-3.95a26.49,26.49,0,0,0,.91-4.4c0-.61-.15-.61-.91-.61s-.91,0-1.07-.3.16-.46,1.07-.76a11.37,11.37,0,0,1,2.13-.61c.91-.15.91-.15,1.52,1.06,0,0,.61-.3,1.37-.6,1.68-.76,2-.76,3.05-.15l.76.45-.46,1.37c-.45,1.21-.61,1.36-1.06,1.36s-.61-.15-.61-.76c0-2-2-1.51-3.05.61a23.91,23.91,0,0,0-1.21,4.1c-.46,1.67-.77,3.19-.77,3.19A14.82,14.82,0,0,1,377.13,164.6Zm12.18,0c0-.15.45-1.52.91-3.19a25.72,25.72,0,0,0,.91-4.55v-1.52l-.91.15c-.61,0-.91,0-.91-.3-.16-.31.15-.46,1.06-.76,2.13-.61,2.74-.61,3.2-.31.3.31.3.61.45.91s0,.46.16.46c0,0,.76-.3,1.67-.61,2-.76,4.57-1.21,5.33-.91.46.31.61.31.46,1.37-.16.6-.46,2.28-.92,3.79a21.45,21.45,0,0,0-.76,3.34c0,.76,0,.76.91.76s1.07.15,1.22.31c.16.45,0,.6-1.52,1.06-1.67.45-3.35.45-3.5,0a21.46,21.46,0,0,1,.76-4.25c1.07-4.25,1.07-4.71.61-5-.61-.15-2.44.6-3.5,1.52-.92.76-1.07.91-1.68,3.18-.3,1.22-.61,2.74-.76,3.34s-.3,1.07-.45,1.07A9.61,9.61,0,0,1,389.31,164.6Zm16.59-.15a20.61,20.61,0,0,1,.91-4.56,18.79,18.79,0,0,0,.92-4.4c-.16-.15-.31-.3-.92-.15a1.94,1.94,0,0,1-.91.15V155c0-.45.15-.6,1.22-.75,2.89-.76,3.8-.61,3.5.45,0,.3-.61,2.13-1.07,4.25a26.11,26.11,0,0,0-.91,4c.15.3.46.3,1.22.15,1.06-.15,1.06-.15,1.06.3C410.92,164.6,406.2,165.36,405.9,164.45Zm9.13,0c-.15-.31,0-1.37.92-5.17,1.06-4.25,1.06-3.79.15-3.79-1.07,0-.92-.61.3-1.21a2.91,2.91,0,0,0,1.68-1.83c.61-1.06.91-1.36,1.37-1.36.76-.16.76,0,.15,2.27l-.15.76h1.21c1.07,0,1.22,0,1.07.31a.9.9,0,0,0-.15.6c0,.31-.31.31-1.22.31h-1.22l-.76,3.64a15,15,0,0,0-.61,4.1c.16.3.31.3.92.15,1.06-.3,1.21-.3,1.21.31,0,.45-.15.6-1.37.91-1.67.6-3.19.6-3.5,0Zm9.9-.15c-.61-.61-.76-.61-.76-2.74,0-2,0-2.28.91-3.79a6.73,6.73,0,0,1,4.26-3.65c3.5-1.21,5.94.76,4.42,3.5-.92,1.51-3.2,2.58-5.48,2.58-1.37,0-1.53,0-1.68.6a2.43,2.43,0,0,0,.61,2.28c.61.61,1.52.46,3.2-.3,1.22-.61,1.52-.61,1.67-.31.46.61.15.91-1.37,1.52a6.38,6.38,0,0,1-3.35.76c-1.37.15-1.67.15-2.43-.45Zm5.33-5.93c1.67-.75,2.13-2.43,1.06-3.18a1.19,1.19,0,0,0-1.22-.16,5.26,5.26,0,0,0-2.58,3l-.46,1.06,1.06-.15A4.36,4.36,0,0,0,430.26,158.37ZM64.14,164.14a.67.67,0,0,1,.61-.45A2.77,2.77,0,0,0,66.57,162a91.38,91.38,0,0,0,2.74-12.3c0-1.67,0-1.67-.76-2.13-1.52-.91-1.06-1.06,3-1.06,3.35,0,3.8,0,3.8.31,0,.15-.3.45-.76.45-1.52.3-2.13,1.67-3.65,8.35-1.37,6.38-1.37,6.23-.76,6.68.45.46.76.46,2.59.31,2.58-.16,3.5-.46,4.41-1.83.76-.6.91-.6,1.37-.45.3.15.3.3,0,1.21-.3.61-.61,1.37-.91,2l-.61.91H70.53C64.44,164.6,64.14,164.6,64.14,164.14Zm122.39.16c0-.16.46-.46.92-.76a3.08,3.08,0,0,0,1.37-1.37c.76-1.21,2.74-10.63,2.89-12.45,0-1.52,0-1.52-.76-2-1.68-.91-1.22-1.07,6.09-1.07,6.69,0,6.85,0,6.69.46a7.47,7.47,0,0,0-.45,2c-.31,1.22-.31,1.52-.76,1.52s-.46,0-.46-.45c0-1.52-.91-1.83-4.41-1.83h-2.29l-.61,2.74c-.3,1.06-.45,2.12-.76,3.19-.15.3.15.3,2,.3,2.44,0,3.2-.3,3.81-1.22s1.52-.91,1.21-.15l-.45,2.43c-.31,1.52-.46,2-.76,2s-.46-.31-.61-.61a2.19,2.19,0,0,0-.76-.91c-.61-.31-4.42-.46-4.72-.16a37.47,37.47,0,0,0-1.22,5.17c-.15.91-.15,1.06.46,1.36.45.31,1.06.31,2.74.31,2.58-.15,3.35-.46,4.41-1.82.46-.61.91-.92,1.07-.76.45.15.45.6-.31,2.12-1.06,2.28-.45,2.13-7.91,2.13-5.18,0-6.25,0-6.4-.15Zm123,0c0-.16.3-.46.76-.61,1.52-.46,2-1.67,3.5-8.81,1.37-6.07,1.22-7-.31-7.44q-.45-.23-.45-.45c.15-.15,2-.31,6.85-.31,6.54,0,6.7,0,6.54.31a9.56,9.56,0,0,0-.45,2c-.31,1.22-.31,1.52-.76,1.52s-.61,0-.61-.61c0-1.36-1.22-1.82-4.42-1.67h-2l-.61,2.89c-.3,1.51-.6,2.88-.6,3,0,.46,3.65.31,4.56,0a2.12,2.12,0,0,0,.92-1.06.77.77,0,0,1,.76-.61c.61,0,.61-.15,0,2.74-.46,2.12-.61,2.43-.92,2.43a.4.4,0,0,1-.45-.46c0-1.06-2.29-1.82-4.42-1.52l-.91.15-.46,2.43c-.91,4.25-.76,4.71.46,5.16,1.52.61.61.76-3.2.76A17.31,17.31,0,0,1,309.54,164.3Zm-142-4.71a3.58,3.58,0,0,1-2-2.89,3.66,3.66,0,0,1,3.66-3.34c2.28,0,3.65,1.22,3.65,3.19,0,2.58-2.59,4.1-5.33,3Zm123.31,0a3.1,3.1,0,0,1-1.37-1.06,2.25,2.25,0,0,1-.61-2c0-2,1.37-3.19,3.66-3.19a3.71,3.71,0,0,1,2.28.61,3,3,0,0,1,.61,4.71A4.33,4.33,0,0,1,290.81,159.59ZM146,151.85c-.46-.46-.46-.46,2.28-3.19l.92-.91,1.37.3c.76.15,1.37.3,1.37.46s-5.18,3.94-5.33,3.94Zm123.15,0-.6-.46,1.82-1.82c1.07-1.06,2-1.82,2-1.82a13.17,13.17,0,0,1,2.59.6c0,.16-4.57,3.34-5.18,3.8C269.8,152.3,269.5,152.15,269.19,151.85Zm160.91,0-.61-.46,1.83-1.82a10.88,10.88,0,0,1,2.13-1.82,8.15,8.15,0,0,1,2.59.6,55.29,55.29,0,0,1-5.18,3.8C430.86,152.3,430.41,152.15,430.1,151.85ZM84.69,150.78c-.91-.91,0-2.58,1.52-2.58,1.07,0,1.52.46,1.52,1.37A1.8,1.8,0,0,1,84.69,150.78Zm163.34.15a1.66,1.66,0,0,1,0-2.27c1.07-.91,2.9-.31,2.9.91A2,2,0,0,1,248,150.93Zm160.76-.15c-1.06-.91,0-2.58,1.52-2.58a1.45,1.45,0,0,1,1.07,2.58A2.06,2.06,0,0,1,408.79,150.78Zm-212.06-6.22c-.3-.31-.3-.46,1.52-2.28l1.83-1.82,1.37.3c.76.15,1.37.31,1.37.46a36.26,36.26,0,0,1-5.33,3.64A.56.56,0,0,1,196.73,144.56Z" transform="translate(-51.37 -1)"/>
  <path d="M277.11,132.26l.61-1.37a26.81,26.81,0,0,1,3.35-6.22c1.52-2.13,4.87-5.16,6.24-5.77a12,12,0,0,1,6.39-.76c2.29.15,9.14,1.21,12,1.82a19.84,19.84,0,0,0,6.7.15c2.89-.76,4.57-2.12,5.33-4.55a5.83,5.83,0,0,0,0-4.56c-.76-1.51-.76-1.82,1.37-3.64a9,9,0,0,0,1.82-1.82,6.63,6.63,0,0,0-1.67-2.89,1.67,1.67,0,0,1-.91-.45l-.61-.46,1.22-.6c1.67-.76,2.89-2,2.89-2.74a5.64,5.64,0,0,0-.76-2c-.76-1.37-1.07-2.73-.61-3.49.3-.46.76-.76,3.35-1.37,2.13-.61,2.89-1.06,3.19-2.43.31-1.06.16-1.67-.61-3-.6-1.06-4.26-6.22-5.32-7.43a22.74,22.74,0,0,1-3.81-6.23,4.86,4.86,0,0,1-.15-3.64c.76-4.25.3-7.75-2-14.58-1.68-5-2.13-6.38-2.74-7.29-.91-1.67-.91-2.12,1.06-3.49a13.75,13.75,0,0,0,2-1.67c.61-1.06-.15-2.88-1.21-3.49-.77-.3-1.07-.15-1.83,1.06-.61.91-.76,1.07-1.37,1.07-.91,0-1.07-.31-.46-1.07.76-.91.61-1.06-.45-1.21s-1.22-.46-3-2.13a21.17,21.17,0,0,0-7.31-4.55c-1.52-.61-2-.91-1.52-.76.46,0,2.13.15,3.65.3,4.42.15,5.64-.3,6.7-3.19.76-2,1.07-2.88-.61-4.25L302.08,19H436.35V132.26Z" transform="translate(-51.37 -1)" fill="#e2011c"/>
  <path d="M162.63,132.26a12.77,12.77,0,0,0-1.82-.15c-.16-.15,1.06-.76,6.08-3.49,1.68-.92,2.29-1.37,2.14-1.52a22.31,22.31,0,0,0-3.2-.31c-2.28-.15-2.89-.15-3.65.16-.46.15-2.29.6-4.11,1.06-4.42,1.06-5.79,1.67-7.31,3.49l-.46.61H64.14V19h171l-3.34,2A25.42,25.42,0,0,0,227,23.55c-2.59,2-6.09,6.38-7,8.81-.3.91-.61,1.21-1.67,1.82a19.9,19.9,0,0,0-4.87,4.71,94.74,94.74,0,0,0-6.7,10.63c-1.22,2.58-1.07,4.7.61,12.6.76,3.49,1.52,7,1.82,7.89a22.4,22.4,0,0,1,.61,3.19c.16,1.67.31,2,1.37,4a4.28,4.28,0,0,1,.46,1.36.79.79,0,0,0,.46.61.84.84,0,0,1,.45.76q0,.45,1.83,2.28c2.74,2.73,4.72,5.31,4.72,6.07,0,.61-1.07.91-2.89.46A13,13,0,0,1,210,85c-1.07-.91-2-1.67-2-1.36s.76,1.06,1.67,2c1.83,1.82,2.13,2.28,1.68,3-.31.6-1.22.76-2.29.45-1.37-.3-2.13.15-1.82,1.06.15.61.15.61-.31.61a18.59,18.59,0,0,0-3.8-.76c-1.37-.15-1.53-.15-2.29-1.21a3,3,0,0,0-1.67-1.22c-2.44-.6-8.37-1.52-12.33-2-7-.76-8.83-.76-12.18-.3a13.39,13.39,0,0,0-4.72,1.06c-2.59,1.21-6.85,4.71-6.85,5.77,0,.45.91.3,2-.31,3.35-1.82,14.76-4.4,20.4-4.7,2.74-.15,2.58,0-.76.61-.92.15-3.05.6-4.88,1.06-1.67.45-4.71,1.21-6.69,1.67s-4.11.91-4.88,1.21l-1.37.46h2c10.51.15,22.38,3,27.25,6.83,2.13,1.67,2.9,1.82,5.94,1.52,4.26-.46,9.74-2.28,12-4,1.06-.76,1.82-1.06,1.82-.61a21.64,21.64,0,0,1-2,5.47c-.6,1.06-.76,1.21-.3,1.52l.3.3c-.15.15.16.15.31.31.76.3.61.45-.61.75-.76-.3-1.83.16-1.83.46s.16.15.31.15c.61,0,.15.46-.61.61s-.61.15-.46.3c.31.15.31.15,0,.15-.15,0-.3.16-.3.46s-.31.61-.76.76c-1.22.45-.92.76.76.61.91-.16,1.37-.16,1.22,0-.16,0-1.53.6-3.05,1.21s-3.35,1.37-4.26,1.67-1.68.61-1.68.91c-.15.31.31.31,1.53,0,.15-.15.45,0,.45,0,0,.15-2.59,1.37-5.63,2.89a50.78,50.78,0,0,0-6.39,3.49,3,3,0,0,1-1.22.76,1,1,0,0,0-.76.6c-.46.92-.46,1.07.76.92,1.67-.31,2.43-.31,2.59,0a.33.33,0,0,1-.31.3,1.17,1.17,0,0,0-.76.3,1.65,1.65,0,0,1-.91.31c-.46,0-.76.3-1.22.76-.3.3-.76.75-.91.75s.15.16.91,0c11-.75,12.94-1.06,17.35-3a38.29,38.29,0,0,0,10.36-6.83,7,7,0,0,1,1.67-1.37c.3,0,.15,1.21-.46,2.28-.91,1.82-3,3.64-7.15,6.07a40.22,40.22,0,0,1-5,2.58,67.48,67.48,0,0,1-9,1.67c-11.41,1.52-15.83,2.58-20.24,5.16a6.18,6.18,0,0,1-1.68.76,4.56,4.56,0,0,0-1.22.61c-1.21,1.06-.3.76,2.29-.46,2.74-1.21,4.11-1.51,1.82-.3-2.74,1.52-4.71,2.43-6.69,2.43H162.63Zm-14.16-12.6a34.43,34.43,0,0,0,3.2-1.67c1.37-.76,2.89-1.52,3.5-1.82l3.81-1.52c3-1.22,7.61-2.43,7.76-2a2.72,2.72,0,0,0,1.52.31c1.07,0,1.22.15.77.3l-.61.31c0,.45,2.28.3,3.19-.16a16.32,16.32,0,0,1,1.83-.45c.76-.15,1.22-.31,1.22-.46s.15-.3.91-.15c1.07.15,3.2-.15,9.14-1.52A62,62,0,0,0,194.3,108l2-.76-2-1.06c-4.72-2.74-9.44-4.41-19.79-7A20.23,20.23,0,0,1,171,98.1c-.15-.15-.15-.15.31,0,1.06.3,1.83.45,1.83.15s-.77-.61-2.29-.76c-1.37-.15-2.28-.61-1.37-.61,1.52,0-1.06-.91-4-1.36-2.13-.31-2.28-.46-1.37-.76s1.68-1.67,1.37-2.13c-.15-.45-.45-.45-1.52.31a15.73,15.73,0,0,0-5.48,5.92c-.61,1.36-.45,1.36,2.89,1.52,2.74.15,2.9.15,2.14.45a4,4,0,0,1-1.83.46c-2,.3-3.05,1.06-2.13,1.67.3.15.15.3-.46.61-.61.15-.61.15-.3.45a4.27,4.27,0,0,0,1.52.15c.91,0,1.22,0,1.67.31l.61.45-1.06.46a4.53,4.53,0,0,0-1.53,1.36,16,16,0,0,1-1.82,2,7,7,0,0,0-1.37,1.67,9.44,9.44,0,0,1-2.44,2.12c-3.65,2.58-5.33,4.1-5.33,4.86a.94.94,0,0,1-.61.91c-1.21.61-1.67,1.52-1.06,1.52a6.15,6.15,0,0,0,1.06-.3Zm28.32-2.58a6,6,0,0,0,2.28-.61l.61-.3-1.22-.46-1.21-.45-1.22.45a17.31,17.31,0,0,1-2,.76c-1.83.61-2,1.37-.31,1.21A27.66,27.66,0,0,1,176.79,117.08Zm-41.1-9.87a83.72,83.72,0,0,1,14-11.08c1.68-1.07,2.74-1.67,2.89-1.52.16.45.92.3,2-.31,1.37-.76,2-1.51,3.66-4.25s2.28-3.49,4.87-5.16a40.32,40.32,0,0,0,3.8-2.73c1.37-.91,1.68-1.07,1.53-.76s0,.45.15.45a10.88,10.88,0,0,0,3.2-1.21c.15-.46-2.44-.76-4.42-.61a10.45,10.45,0,0,0-3.8,1.06C159.13,83.22,156.09,85.5,150,91c-4.27,4-7.77,6.53-9.44,7.29-.61.3-.91.76-1.68,2a63.09,63.09,0,0,1-5.93,8.66c-2.13,2.73-2.59,3.64-.92,1.82,1.22-1.21,2.44-2.43,3.66-3.49Zm54,23.84c6.55-1.22,7.15-1.37,11.72-1.52,5.18-.15,5.79-.31,8.83-1.67.91-.46,1.37-.46,1.52-.31.31.31,2-.45,5.18-2.58,1.37-.91,3.2-2,4.11-2.43a4.77,4.77,0,0,1,2.59-.76c.76.16.91,0,2-.76,2.58-2.12,4.87-3,7.15-3,.61,0,.91.15.91.3s.16.31.31.15c.61-.3.3,0-1.37,1.22-2,1.36-1.83,1.82.15.45,2-1.21,2-1.21,2-.76s-.76,1.07-2.13,2a63.34,63.34,0,0,0-8.68,7.59l-3,2.88H182.88Zm0-44.34h.91c.31,0,0,.15-.45.15C189.73,86.71,189.58,86.71,189.73,86.71Z" transform="translate(-51.37 -1)" fill="#003189"/>
  <path d="M302.68,78.36c-1.06-.15-.45-.45.76-.45s2-.46,2-1.22c0-.45-.15-.45-.45-.3s-.61,0-.92-.31c-.15-.3-.76-.45-1.52-.6-1.37-.16-3.65-1.37-3.2-1.67a3.22,3.22,0,0,1,1.53-.31c1.21-.15,1.37-.15,1.67-.91a1.38,1.38,0,0,1,.91-.91,2.24,2.24,0,0,0,1.22-.61,9.77,9.77,0,0,1,2.44-1.51c1.67-1.07,2.74-2,2.28-2.43a18.35,18.35,0,0,0-5.78-.61,40.1,40.1,0,0,0-6.85,1.21c-1.53.46-1.07,0,.91-1.06a28,28,0,0,1,10.81-2.88,23.33,23.33,0,0,1,5.33,1.06c.91.61-.16,2.88-1.68,4.1l-.61.45,1.07,1.07-.61.45a5.5,5.5,0,0,1-.91.46,4.19,4.19,0,0,0-1.22.6c-.61.61-.76.76-.61,1.22a1,1,0,0,1,0,.91,4.76,4.76,0,0,0-.15,1.67c.15,1.52-.16,2-1.22,2.28C307.4,78.51,304.21,78.51,302.68,78.36Z" transform="translate(-51.37 -1)" fill="#7f7f7f"/>
  <path d="M67.94,286V246.11h7.44v12.66a17.78,17.78,0,0,1,4.53-2.92,13.83,13.83,0,0,1,5.49-1,16.58,16.58,0,0,1,8.09,1.95,15.79,15.79,0,0,1,5.82,5.51,16.8,16.8,0,0,1,1.94,8.12,18.44,18.44,0,0,1-3.56,10.71c-2.91,3.57-6.79,5.2-11.64,5.2a18.73,18.73,0,0,1-6.14-1,15.43,15.43,0,0,1-4.85-3.57v3.9H67.94Zm16.17-24.67a8.12,8.12,0,0,0-6.47,2.92,9.47,9.47,0,0,0,0,13,9.26,9.26,0,0,0,6.79,2.59,10.41,10.41,0,0,0,6.79-2.59,9.1,9.1,0,0,0,2.59-6.5A10.47,10.47,0,0,0,91.22,264,10.59,10.59,0,0,0,84.11,261.37ZM140.05,274H115.48a6.67,6.67,0,0,0,2.91,4.22,11.13,11.13,0,0,0,5.82,1.62,11.85,11.85,0,0,0,3.88-.65A8.76,8.76,0,0,0,131,277h8.41a12.51,12.51,0,0,1-2.59,4.22,16.36,16.36,0,0,1-12.61,5.52,16.69,16.69,0,0,1-6.79-1.3,19.16,19.16,0,0,1-5.5-3.24,10.67,10.67,0,0,1-3.56-4.87,13.24,13.24,0,0,1-1.29-6.17,13,13,0,0,1,2.26-7.79,21.41,21.41,0,0,1,6.15-5.85,15.3,15.3,0,0,1,8.4-1.94,17.92,17.92,0,0,1,8.41,1.94,12.69,12.69,0,0,1,5.82,5.85,17.88,17.88,0,0,1,2.27,8.11C140.38,272.41,140.05,273.38,140.05,274Zm-24.9-6.17h17.47c-.33-1.95-1.62-3.24-2.91-4.54a11.11,11.11,0,0,0-5.83-1.63,9.16,9.16,0,0,0-5.49,1.63A7.88,7.88,0,0,0,115.15,267.86ZM148.78,286V262.67h-3.55v-6.49h3.55V246.11h7.44v10.07h4.53v6.49h-4.53V286Zm50.45-30.19v29.87h-6.79v-3.9a12.86,12.86,0,0,1-10.67,4.55,16.58,16.58,0,0,1-8.09-1.95,19,19,0,0,1-5.82-5.52,17.94,17.94,0,0,1,0-16.23,13.82,13.82,0,0,1,5.82-5.52,17.86,17.86,0,0,1,8.41-1.95,15.61,15.61,0,0,1,5.82,1,11.55,11.55,0,0,1,4.53,3.57v-3.9ZM182.41,262a9,9,0,0,0-6.46,2.6,9.29,9.29,0,0,0-2.59,6.81,9.1,9.1,0,0,0,2.59,6.5,9.24,9.24,0,0,0,6.79,2.59,10.43,10.43,0,0,0,6.79-2.59,9.44,9.44,0,0,0,0-13C187.59,262.67,185.32,262,182.41,262Zm29.75,18.5a3.2,3.2,0,0,0-3.23,2.92,3,3,0,0,0,3.23,2.93,2.94,2.94,0,1,0,0-5.85Zm37.52-24.67h7.11V280.2a24.42,24.42,0,0,1-1,7.46,11.63,11.63,0,0,1-2.59,4.87c-2.91,3.57-7.44,5.2-12.93,5.2a20.07,20.07,0,0,1-10-2.6,13.33,13.33,0,0,1-6.14-7.14h8.73a9.13,9.13,0,0,0,3.56,2.6,16.9,16.9,0,0,0,4.52.65c2.91,0,4.85-.65,6.47-2.28s2.27-3.89,2.27-7.14c-1.62,1.62-2.92,2.92-4.53,3.57a15.61,15.61,0,0,1-5.82,1,17.49,17.49,0,0,1-8.09-1.95,15,15,0,0,1-5.49-5.52,16.64,16.64,0,0,1-1.94-8.12,14.93,14.93,0,0,1,4.52-11,15.38,15.38,0,0,1,11-4.55c4.52,0,8.08,1.63,10.35,4.55ZM240,262a7.75,7.75,0,0,0-6.14,2.6,10.45,10.45,0,0,0,0,13,9.16,9.16,0,0,0,12.93-13C245.15,262.67,242.88,262,240,262Zm41.4-6.82a18.74,18.74,0,0,1,8.4,1.95,15.25,15.25,0,0,1,6.15,5.84,14.57,14.57,0,0,1,0,15.59,21.25,21.25,0,0,1-6.15,5.84,15.31,15.31,0,0,1-8.4,1.95,18.78,18.78,0,0,1-8.41-1.95,15.25,15.25,0,0,1-6.15-5.84,13.75,13.75,0,0,1-2.26-7.8,13.17,13.17,0,0,1,1.29-6.16,13.52,13.52,0,0,1,3.56-4.87,19,19,0,0,1,5.5-3.25A20.79,20.79,0,0,1,281.37,255.2ZM281,262a9.6,9.6,0,0,0-6.47,2.6,9.09,9.09,0,0,0-2.58,6.49,9.69,9.69,0,0,0,2.58,6.49,9,9,0,0,0,6.47,2.6,9.61,9.61,0,0,0,6.47-2.6c1.94-1.62,2.59-3.89,2.59-6.49a9.06,9.06,0,0,0-2.59-6.49C285.89,262.67,283.63,262,281,262Zm52.39-6.17v29.87h-6.79V282.8a16.69,16.69,0,0,1-4.21,2.92c-1.29.65-2.91.65-4.85.65a11.09,11.09,0,0,1-5.82-1.3,10.85,10.85,0,0,1-4.2-3.57,10.15,10.15,0,0,1-1.62-3.9,24.54,24.54,0,0,1-.64-5.84V255.85h7.76v14.61a21.8,21.8,0,0,0,.32,4.87,4.93,4.93,0,0,0,1.29,2.6,5.44,5.44,0,0,0,4.53,1.94,11.46,11.46,0,0,0,3.56-.65A5,5,0,0,0,325,277a22.12,22.12,0,0,0,1-2.6,17.43,17.43,0,0,0,.32-4.54v-14ZM352.18,286l-12.61-30.19H348l7.44,19.8,7.11-19.8h8.73l-12.61,29.87C358.33,286,352.18,286,352.18,286Zm23-5.52a2.93,2.93,0,1,0,2.91,2.92A2.91,2.91,0,0,0,375.14,280.52Z" transform="translate(-51.37 -1)" fill="#fff"/>
  <path d="M385.17,258.12h6.14l-6.14,29.22c-1.62,7.47-3.88,11.36-6.8,11.36-1,0-1.29-.32-1.29-1.3,0-.32,0-.32.32-.65s.33-.65.33-1.29a2.56,2.56,0,0,0-2.59-2.6,2.86,2.86,0,0,0-2.59,2.92c0,2.27,2.27,4.22,5.5,4.22,6.15,0,11-6.82,14.23-19.8l5.17-22.4h7.76l.33-2.27H398.1c1.94-11,4.85-15.91,8.41-15.91,1,0,1.61.32,1.61,1a1,1,0,0,1-.32.65,2,2,0,0,0-.32,1.3,2.39,2.39,0,0,0,2.59,2.6,2.91,2.91,0,0,0,2.91-2.92c0-2.6-2.59-4.55-5.83-4.55s-6.14,1.62-8.73,4.87c-1.94,2.6-3.55,5.84-5.49,12.66h-6.47A15.88,15.88,0,0,0,385.17,258.12ZM409.42,286c3.88-12,4.85-14.93,8.08-20.13,2.27-3.89,4.21-6.16,5.5-6.16a1.72,1.72,0,0,1,1.29,1c.65,1.3,1,1.62,2.59,1.62,1.94,0,3.23-1.3,3.23-3.57s-1.29-3.57-3.23-3.57a7.16,7.16,0,0,0-5.17,2.92,33.38,33.38,0,0,0-6.79,9.74l-1,2.6,3.88-15.26h-.33c-4.85,1-5.82,1-10.67,1.95v1a10.45,10.45,0,0,1,2.27-.32c1.61,0,2.26.65,2.26,1.95,0,1-.65,3.57-1,5.84L404.57,286Z" transform="translate(-51.37 -1)" fill="#fff"/>
</svg>
