<svg width="31" height="31" viewBox="0 0 31 31" fill="none" xmlns="http://www.w3.org/2000/svg">
<circle cx="15.0498" cy="15.0498" r="15" fill="#DB8F00"/>
<path d="M23.6398 22.2361L5.80412 22.2085C4.65995 22.2068 3.73174 21.2829 3.73349 20.1477L3.74975 9.60745C3.75151 8.4722 4.68257 7.55124 5.82673 7.55301L23.6624 7.58053C24.8066 7.5823 25.7348 8.50612 25.7331 9.64138L25.7168 20.1816C25.715 21.3169 24.7864 22.2378 23.6398 22.2361Z" fill="white"/>
<path d="M6.43979 8.74633C6.25803 8.74605 6.08329 8.77858 5.92268 8.84161L14.2117 15.841C14.5112 16.0922 14.8865 16.0928 15.1867 15.8425L23.4808 8.86871C23.3203 8.80753 23.1457 8.77211 22.964 8.77183L6.43979 8.74633ZM5.03575 9.94648C5.0262 10.0121 5.02137 10.0824 5.02126 10.1527L5.0068 19.5275C5.00649 19.7243 5.04397 19.9142 5.11688 20.0854L10.8871 14.8796L5.03575 9.94648ZM24.3619 9.9763L18.5119 14.8797L24.2495 20.1103C24.3229 19.9393 24.361 19.7519 24.3613 19.5526L24.3758 10.1779C24.3782 10.1123 24.3713 10.0419 24.3619 9.9763ZM17.4269 15.7944L16.0962 16.9126C15.2902 17.5887 14.0981 17.5869 13.2918 16.9083L11.974 15.793L6.28644 20.9263C6.32893 20.931 6.37613 20.9335 6.41862 20.9335L22.9428 20.959C22.99 20.9591 23.0372 20.9568 23.0821 20.9522L17.4269 15.7944Z" fill="#DB8F00"/>
</svg>
