<svg width="26" height="26" viewBox="0 0 26 26" fill="none" xmlns="http://www.w3.org/2000/svg">
<circle cx="13" cy="13" r="13" fill="#4D6EC5"/>
<path d="M12.6974 13.2647C12.6067 13.2647 12.4858 13.2344 12.3951 13.2042L8.46484 11.8438V15.9856C8.46484 16.1065 8.52531 16.1972 8.64624 16.2577C9.91601 16.8624 11.3067 17.1647 12.6974 17.1647C14.1183 17.1647 15.4788 16.8624 16.7486 16.2577C16.8393 16.1972 16.93 16.1065 16.93 15.9856V11.8438L12.9997 13.2042C12.909 13.2344 12.7881 13.2647 12.6974 13.2647Z" fill="white"/>
<path d="M17.8369 17.2559V21.2768C17.8369 21.5187 18.0485 21.7303 18.2904 21.7303H19.1974C19.4392 21.7303 19.6509 21.5187 19.6509 21.2768V17.2559C19.3788 17.407 19.0764 17.4977 18.7439 17.4977C18.4113 17.4977 18.109 17.407 17.8369 17.2559Z" fill="white"/>
<path d="M19.0461 14.5041V10.4832L19.7414 10.2413C19.8623 10.2111 19.953 10.0902 19.953 9.96923C19.953 9.8483 19.8623 9.72737 19.7414 9.69714L12.7879 7.27853C12.7275 7.2483 12.6368 7.2483 12.5763 7.27853L5.6228 9.69714C5.5321 9.69714 5.44141 9.81807 5.44141 9.939C5.44141 10.0599 5.5321 10.1809 5.65303 10.2111L12.6065 12.6297C12.6368 12.6297 12.667 12.6599 12.6972 12.6599C12.7275 12.6599 12.7577 12.6599 12.7879 12.6297L18.4414 10.6646V14.5041C17.9275 14.625 17.5344 15.1088 17.5344 15.6832C17.5344 16.3483 18.0786 16.8925 18.7437 16.8925C19.4088 16.8925 19.953 16.3483 19.953 15.6832C19.953 15.1088 19.56 14.6553 19.0461 14.5041Z" fill="white"/>
</svg>
