<svg width="48" height="48" viewBox="0 0 48 48" fill="none" xmlns="http://www.w3.org/2000/svg">
<g filter="url(#filter0_d)">
<circle cx="24" cy="20" r="20" fill="#4D6EC5"/>
<path d="M23.5351 20.4067C23.3955 20.4067 23.2095 20.3602 23.0699 20.3137L17.0234 18.2207V24.5928C17.0234 24.7788 17.1165 24.9184 17.3025 25.0114C19.256 25.9416 21.3955 26.4067 23.5351 26.4067C25.7211 26.4067 27.8141 25.9416 29.7676 25.0114C29.9072 24.9184 30.0467 24.7788 30.0467 24.5928V18.2207L24.0002 20.3137C23.8606 20.3602 23.6746 20.4067 23.5351 20.4067Z" fill="white"/>
<path d="M31.4414 26.5469V32.7329C31.4414 33.105 31.767 33.4306 32.1391 33.4306H33.5344C33.9065 33.4306 34.2321 33.105 34.2321 32.7329V26.5469C33.8135 26.7794 33.3484 26.919 32.8368 26.919C32.3251 26.919 31.86 26.7794 31.4414 26.5469Z" fill="white"/>
<path d="M33.3023 22.3142V16.1282L34.3721 15.7561C34.5581 15.7096 34.6977 15.5236 34.6977 15.3375C34.6977 15.1515 34.5581 14.9654 34.3721 14.9189L23.6744 11.198C23.5814 11.1515 23.4418 11.1515 23.3488 11.198L12.6511 14.9189C12.5116 14.9189 12.3721 15.1049 12.3721 15.291C12.3721 15.477 12.5116 15.6631 12.6977 15.7096L23.3953 19.4305C23.4418 19.4305 23.4883 19.477 23.5349 19.477C23.5814 19.477 23.6279 19.477 23.6744 19.4305L32.3721 16.4073V22.3142C31.5814 22.5003 30.9767 23.2445 30.9767 24.1282C30.9767 25.1515 31.8139 25.9887 32.8372 25.9887C33.8604 25.9887 34.6977 25.1515 34.6977 24.1282C34.6977 23.2445 34.093 22.5468 33.3023 22.3142Z" fill="white"/>
</g>
<defs>
<filter id="filter0_d" x="0" y="0" width="48" height="48" filterUnits="userSpaceOnUse" color-interpolation-filters="sRGB">
<feFlood flood-opacity="0" result="BackgroundImageFix"/>
<feColorMatrix in="SourceAlpha" type="matrix" values="0 0 0 0 0 0 0 0 0 0 0 0 0 0 0 0 0 0 127 0"/>
<feOffset dy="4"/>
<feGaussianBlur stdDeviation="2"/>
<feColorMatrix type="matrix" values="0 0 0 0 0 0 0 0 0 0 0 0 0 0 0 0 0 0 0.25 0"/>
<feBlend mode="normal" in2="BackgroundImageFix" result="effect1_dropShadow"/>
<feBlend mode="normal" in="SourceGraphic" in2="effect1_dropShadow" result="shape"/>
</filter>
</defs>
</svg>
