<svg xmlns="http://www.w3.org/2000/svg" viewBox="0 0 454.11 308.3">
    <defs>
        <style>.cls-1{fill:#dfd4ff;}.cls-2{font-size:32px;fill:#7533ff;font-family:OceanSix-Condensed, Ocean Six;}.cls-3{letter-spacing:-0.05em;}.cls-4{fill:#4e1aba;}</style>
    </defs>
    <g id="ILLU">
        <path class="cls-1" d="M330.55,86.46c-38-38.29-93.69-48.28-146-53.41-7.56-.74-15.33-1.4-22.62.85-6.08,1.87-11.45,5.66-16.71,9.39l-70.45,50c-7.12,5-14.29,10.14-20.21,16.68-5.2,5.73-9.53,13.31-8.49,21.16.75,5.65,4.16,10.49,7.79,14.73C63.4,157,57.62,211,69.42,219.35c36.8,26.13,93.51,4,136,17.54,26.54,8.47,60.13,3.55,87.79,2.8,16.59-.45,27.41,6.71,43.46,2.07,18.72-5.41,37.54-14.56,48.83-31.22,15.41-22.76,13.18-54.25,3.88-80.43-2.19-6.17-4.84-12.37-9.34-16.94-14.22-14.43-43-9.47-50.66-28.63" />
        <text class="cls-2" transform="translate(125.89 134.75)">
            TR
            <tspan class="cls-3" x="40.36" y="0">A</tspan>
            <tspan x="60.2" y="0">VAILLER </tspan>
            <tspan class="cls-4">
                <tspan class="cls-3" x="-22.47" y="60">A</tspan>
                <tspan x="-2.63" y="60">VEC SA TÊTE</tspan>
            </tspan>
        </text>
    </g>
</svg>